<svg width="23" height="21" viewBox="0 0 23 21" fill="none" xmlns="http://www.w3.org/2000/svg">
<path d="M9.68457 11.5269C9.68599 10.6523 9.70704 10.5238 9.78009 10.3539C9.83279 10.2794 9.88357 10.2248 10.0056 10.1479C10.2736 10.0835 10.5669 10.0733 12.4242 10.0811C12.6225 10.1049 12.7272 10.1364 12.8304 10.1857C12.9246 10.2571 13.0018 10.3441 13.0568 10.4432C13.1044 10.6447 13.1103 12.6525 13.1019 12.8357L13.0735 12.9824" stroke="black" stroke-width="0.967481" stroke-linecap="round" stroke-linejoin="round"/>
<path d="M22.2354 9.22534C21.5598 10.1531 21.2376 10.5458 21.0385 10.7397C20.8503 10.8926 20.4246 11.1697 19.8979 11.4223C19.6218 11.521 19.2888 11.6118 19.0077 11.6641C18.8135 11.684 18.4366 11.701 17.8771 11.7151" stroke="black" stroke-width="0.967481" stroke-linecap="round" stroke-linejoin="round"/>
<path d="M15.5143 4.00872C15.5007 2.82124 15.4689 2.32769 15.4207 2.11232C15.3526 1.90827 15.2665 1.71281 15.133 1.48174C14.9417 1.23032 14.7527 1.04146 14.5508 0.881299C14.3073 0.737045 14.0145 0.614953 13.7439 0.540827C13.5629 0.511572 13.3756 0.49251 13.182 0.483643" stroke="black" stroke-width="0.967481" stroke-linecap="round" stroke-linejoin="round"/>
<path d="M13.0735 12.9821C12.9602 13.254 12.7771 13.4929 12.6749 13.5864C12.5144 13.6971 12.3633 13.7719 12.2036 13.8262C12.0231 13.8624 11.8127 13.8792 10.932 13.8818C10.7129 13.8577 10.4309 13.776 10.2161 13.6587C10.0105 13.4831 9.84092 13.254 9.74533 13.0483C9.70953 12.9259 9.68814 12.7384 9.68457 11.5266" stroke="black" stroke-width="0.967481" stroke-linecap="round" stroke-linejoin="round"/>
<path d="M4.18053 11.6979C3.94135 11.6818 3.66994 11.6401 3.39384 11.5767C3.08222 11.4796 2.56877 11.2627 2.12949 10.9941C1.78335 10.711 1.42177 10.3261 1.17981 10.0115L0.566772 9.11694" stroke="black" stroke-width="0.967481" stroke-linecap="round" stroke-linejoin="round"/>
<path d="M22.3125 17.7974C22.2881 18.2779 22.2259 18.5695 22.159 18.7605C22.0115 19.051 21.8773 19.2457 21.7041 19.4409C21.5083 19.6132 21.3049 19.7518 21.1042 19.8579C20.7074 19.9961 20.5112 20.0317 20.3154 20.0457L19.4355 20.0525" stroke="black" stroke-width="0.967481" stroke-linecap="round" stroke-linejoin="round"/>
<path d="M2.90464 20.0622C2.51386 20.0534 2.22078 20.0196 1.92729 19.9496C1.72848 19.8776 1.43671 19.7282 1.2442 19.596C1.06318 19.4399 0.900878 19.26 0.767022 19.0654C0.66821 18.8687 0.599347 18.68 0.528957 18.3968C0.502541 18.1461 0.488738 17.7335 0.487549 17.1589" stroke="black" stroke-width="0.967481" stroke-linecap="round" stroke-linejoin="round"/>
<path d="M22.3269 5.73883C22.3119 5.35522 22.2636 5.14313 22.2071 4.98549C22.1172 4.81398 21.9924 4.63521 21.8597 4.48958C21.7131 4.36122 21.5655 4.25822 21.4018 4.17075C21.0457 4.04863 20.78 4.01321 20.1461 4.00806" stroke="black" stroke-width="0.967481" stroke-linecap="round" stroke-linejoin="round"/>
<path d="M2.3504 4.00635C1.86714 4.02622 1.71021 4.05528 1.47986 4.13303C1.28813 4.2306 1.0927 4.36936 0.839822 4.62883C0.656431 4.9186 0.574969 5.11056 0.52266 5.2966C0.499899 5.48279 0.488053 5.82935 0.487122 6.33628" stroke="black" stroke-width="0.967481" stroke-linecap="round" stroke-linejoin="round"/>
<path d="M9.49091 0.486572C9.1031 0.514985 8.71944 0.603213 8.52713 0.67995C8.39887 0.749797 8.2382 0.857591 8.0451 1.00333" stroke="black" stroke-width="0.967481" stroke-linecap="round" stroke-linejoin="round"/>
<path d="M8.04515 1.00317C7.86101 1.18693 7.64188 1.47643 7.49304 1.76185C7.40075 2.04052 7.34646 2.32356 7.3233 2.60559L7.32603 4.00833" stroke="black" stroke-width="0.967481" stroke-linecap="round" stroke-linejoin="round"/>
<path d="M9.68452 11.7184L4.18054 11.698" stroke="black" stroke-width="0.967481" stroke-linecap="round" stroke-linejoin="round"/>
<path d="M22.3239 9.10303L22.3125 17.7973" stroke="black" stroke-width="0.967481" stroke-linecap="round" stroke-linejoin="round"/>
<path d="M22.2354 9.2251L22.3268 5.73877" stroke="black" stroke-width="0.967481" stroke-linecap="round" stroke-linejoin="round"/>
<path d="M17.8772 11.7151L13.1103 11.7216" stroke="black" stroke-width="0.967481" stroke-linecap="round" stroke-linejoin="round"/>
<path d="M19.4355 20.0525L2.90466 20.0624" stroke="black" stroke-width="0.967481" stroke-linecap="round" stroke-linejoin="round"/>
<path d="M0.487592 17.159L0.483765 8.99536" stroke="black" stroke-width="0.967481" stroke-linecap="round" stroke-linejoin="round"/>
<path d="M20.1461 4.00828L2.3504 4.00635" stroke="black" stroke-width="0.967481" stroke-linecap="round" stroke-linejoin="round"/>
<path d="M0.487122 6.33618L0.566777 9.11694" stroke="black" stroke-width="0.967481" stroke-linecap="round" stroke-linejoin="round"/>
<path d="M13.182 0.483643L9.49091 0.486502" stroke="black" stroke-width="0.967481" stroke-linecap="round" stroke-linejoin="round"/>
</svg>
