<svg width="26" height="26" viewBox="0 0 26 26" fill="none" xmlns="http://www.w3.org/2000/svg">
<path d="M22.7059 17.0701C23.1271 17.4233 23.2629 17.5673 23.4036 17.7888C23.5126 18.0721 23.5671 18.3317 23.5885 18.6076C23.5875 20.2741 23.5751 20.4867 23.5218 20.7154C23.4489 20.8863 23.3352 21.0498 23.2112 21.163C23.0227 21.27 22.8157 21.3346 22.6668 21.3507C22.4643 21.3271 22.2659 21.2531 22.0874 21.14C21.9717 21.0261 21.863 20.8619 21.7785 20.6463C21.7386 20.4321 21.7275 20.1663 21.7307 18.5039C21.7986 18.0961 21.9079 17.8091 22.0815 17.5476C22.2041 17.4334 22.3953 17.286 22.6551 17.1055" stroke="black" stroke-width="1.03815" stroke-linecap="round" stroke-linejoin="round"/>
<path d="M24.7196 10.2581C24.1514 10.5667 22.9737 11.1628 21.1865 12.0464" stroke="black" stroke-width="1.03815" stroke-linecap="round" stroke-linejoin="round"/>
<path d="M13.85 15.5818C13.4205 15.7705 13.2015 15.828 12.9798 15.8426C12.7635 15.8147 12.5509 15.7495 12.3359 15.657L10.61 14.8159" stroke="black" stroke-width="1.03815" stroke-linecap="round" stroke-linejoin="round"/>
<path d="M3.82946 11.5209L1.2804 10.2771" stroke="black" stroke-width="1.03815" stroke-linecap="round" stroke-linejoin="round"/>
<path d="M20.5207 17.1824C20.4928 17.4016 20.4359 17.6012 20.3543 17.7938L20.2583 17.957" stroke="black" stroke-width="1.03815" stroke-linecap="round" stroke-linejoin="round"/>
<path d="M24.7196 10.2582C24.0475 9.91839 22.7777 9.29415 20.91 8.3855" stroke="black" stroke-width="1.03815" stroke-linecap="round" stroke-linejoin="round"/>
<path d="M13.4781 4.77678C13.2644 4.69465 13.0552 4.6546 12.8279 4.65818C12.6647 4.70323 12.3528 4.83852 10.4156 5.78149" stroke="black" stroke-width="1.03815" stroke-linecap="round" stroke-linejoin="round"/>
<path d="M4.91767 8.45923C3.11979 9.33905 1.90736 9.94497 1.2804 10.277" stroke="black" stroke-width="1.03815" stroke-linecap="round" stroke-linejoin="round"/>
<path d="M20.2582 17.957C20.0888 18.1804 19.8872 18.3918 19.6132 18.6282C19.2793 18.8729 18.8969 19.1164 18.4808 19.348C18.0347 19.5661 17.6332 19.7366 16.7433 20.0449C15.8349 20.2723 14.9132 20.4275 13.8813 20.5242" stroke="black" stroke-width="1.03815" stroke-linecap="round" stroke-linejoin="round"/>
<path d="M11.3009 20.4413C10.6962 20.3514 10.1295 20.2411 9.57441 20.1063C8.99805 19.9355 8.47773 19.7512 7.96836 19.5412C7.49176 19.3137 7.05356 19.0738 6.6697 18.832C6.29855 18.5611 6.02907 18.3265 5.78293 18.0562C5.63512 17.8432 5.50907 17.5774 5.43243 17.2771L5.41302 16.9917" stroke="black" stroke-width="1.03815" stroke-linecap="round" stroke-linejoin="round"/>
<path d="M22.6594 11.3286L22.6552 17.0274" stroke="black" stroke-width="1.03815" stroke-linecap="round" stroke-linejoin="round"/>
<path d="M21.1864 12.0464L13.85 15.5817" stroke="black" stroke-width="1.03815" stroke-linecap="round" stroke-linejoin="round"/>
<path d="M13.8813 20.5242L11.3008 20.4412" stroke="black" stroke-width="1.03815" stroke-linecap="round" stroke-linejoin="round"/>
<path d="M10.61 14.8158L3.82941 11.5208" stroke="black" stroke-width="1.03815" stroke-linecap="round" stroke-linejoin="round"/>
<path d="M20.521 12.3679L20.5208 17.1825" stroke="black" stroke-width="1.03815" stroke-linecap="round" stroke-linejoin="round"/>
<path d="M5.41301 16.9916L5.409 12.2832" stroke="black" stroke-width="1.03815" stroke-linecap="round" stroke-linejoin="round"/>
<path d="M20.9099 8.38548L13.4781 4.77686" stroke="black" stroke-width="1.03815" stroke-linecap="round" stroke-linejoin="round"/>
<path d="M10.4156 5.78125L4.91766 8.45902" stroke="black" stroke-width="1.03815" stroke-linecap="round" stroke-linejoin="round"/>
</svg>
