<svg width="275" height="275" viewBox="0 0 275 275" fill="none" xmlns="http://www.w3.org/2000/svg">
<g clip-path="url(#clip0_459_616)">
<path d="M23.2353 235.799C22.8683 235.967 22.8871 236.052 23.2917 236.054C32.1397 236.099 41.0262 236.121 49.9512 236.121C80.2746 236.12 110.599 236.12 140.924 236.121C150.369 236.121 159.817 236.237 169.278 236.253C169.514 236.253 169.647 236.37 169.676 236.605L169.702 236.836C169.733 237.095 169.618 237.225 169.359 237.225C162.98 237.252 156.232 237.246 149.115 237.206C148.406 237.204 147.573 237.126 146.789 237.123C114.396 236.997 81.6379 237.196 48.8098 237.158C47.9504 237.158 47.1224 237.155 46.3257 237.15C37.1286 237.087 28.6727 237.08 20.958 237.128C20.4773 237.131 19.9563 236.957 20.0798 236.336C20.0995 236.239 20.1487 236.162 20.2275 236.102C20.4424 235.938 20.6715 235.799 20.915 235.686C24.4582 234.055 27.8572 232.53 31.112 231.11C31.1579 231.091 31.1973 231.059 31.2258 231.019C31.2544 230.978 31.2708 230.931 31.2732 230.882C31.7315 222.607 32.317 214.351 33.0295 206.116C33.5639 199.931 34.1924 193.676 35.0893 187.491C36.6416 176.79 38.6611 166.105 41.1479 155.434C42.6948 148.793 44.6042 141.904 47.134 135.448C49.5564 129.266 53.4191 124.01 58.7221 119.681C61.9609 117.039 65.6849 115.333 69.894 114.565C73.2313 113.955 76.6124 113.626 80.0373 113.58C80.0891 113.58 80.139 113.56 80.1773 113.525C80.2156 113.49 80.2394 113.441 80.2441 113.389L81.0525 104.538C81.0551 104.509 81.0516 104.479 81.0423 104.452C81.0329 104.425 81.0178 104.399 80.9981 104.378C80.9783 104.357 80.9543 104.34 80.9276 104.328C80.9009 104.317 80.872 104.311 80.843 104.312C79.9389 104.323 79.0428 104.288 78.1548 104.207C74.0969 103.831 71.6262 98.3823 71.2073 95.0549C71.1553 94.6485 71.0327 94.2734 70.8393 93.9296C68.7554 90.2129 69.6201 84.7961 71.9377 81.458C71.9895 81.3822 72.0106 81.2891 71.9968 81.1975C71.0434 75.0717 74.8139 68.425 81.8044 69.3999C81.8248 69.4023 81.8455 69.3989 81.8641 69.3899C81.8826 69.381 81.8981 69.3669 81.9089 69.3493C81.9196 69.3318 81.9251 69.3116 81.9247 69.291C81.9243 69.2704 81.9179 69.2504 81.9065 69.2334C81.5753 68.7571 81.3855 68.2334 81.3371 67.6623C81.0256 63.9724 83.2734 60.8625 86.7754 59.7561C87.1496 59.6379 87.4969 59.4571 87.8174 59.2136C90.7043 57.0356 94.5527 56.434 97.8828 57.8359C98.2534 57.9917 98.6303 58.0364 99.0134 57.9702C103.079 57.2827 106.372 59.2539 108.716 62.5061C108.82 62.6511 108.958 62.7451 109.13 62.788C116.604 64.6679 118.151 73.2214 113.752 78.7885C113.675 78.8852 113.635 78.9917 113.634 79.1081C113.564 82.8733 113.745 86.642 114.176 90.4143C114.366 92.0686 114.548 93.7927 114.721 95.5866C114.961 98.0645 114.795 100.434 114.222 102.695C112.535 109.329 106.912 112.508 100.388 112.809C98.6124 112.891 96.9106 112.883 95.2832 112.785C95.249 112.783 95.2154 112.793 95.1887 112.814C95.162 112.835 95.144 112.865 95.1382 112.898L94.1096 118.629C94.0948 118.709 94.1064 118.793 94.1427 118.866C94.179 118.94 94.238 118.999 94.311 119.037C98.6321 121.226 102.164 124.534 105.322 128.286C108.955 132.602 112.841 138.402 116.843 143.15C117.421 143.838 118.109 144.553 118.905 145.296C118.955 145.343 118.995 145.399 119.022 145.462C119.049 145.525 119.062 145.592 119.062 145.661C119.061 145.729 119.046 145.797 119.018 145.86C118.989 145.922 118.948 145.978 118.897 146.024L117.659 147.133C117.58 147.203 117.576 147.277 117.646 147.356C118.793 148.675 119.936 149.969 121.072 151.237C122.809 153.174 124.751 154.836 126.897 156.224C126.996 156.288 127.111 156.323 127.229 156.327C127.348 156.33 127.465 156.301 127.569 156.242C131.259 154.166 135.894 154.892 139.646 156.718C139.676 156.733 139.711 156.737 139.744 156.732C139.777 156.726 139.808 156.71 139.831 156.686C140.548 155.958 141.362 155.383 142.425 155.501C143.607 155.63 144.721 155.894 145.769 156.293C147.53 156.962 148.274 158.324 148.473 160.067C148.487 160.185 148.554 160.236 148.672 160.22C156.017 159.175 162.97 158.718 170.401 158.756C170.687 158.756 170.94 158.647 171.161 158.428C173.044 156.55 174.965 154.651 176.924 152.73C176.937 152.717 176.948 152.701 176.955 152.683C176.962 152.666 176.965 152.647 176.965 152.628C176.964 152.609 176.959 152.59 176.951 152.573C176.942 152.556 176.93 152.541 176.916 152.528L173.186 149.357C173.146 149.324 173.114 149.283 173.091 149.237C173.068 149.191 173.055 149.141 173.052 149.09C173.048 149.039 173.056 148.988 173.073 148.939C173.09 148.891 173.116 148.847 173.151 148.809C174.179 147.681 175.227 146.577 176.172 145.358C179.993 140.422 183.162 134.833 186.538 129.462C188.615 126.161 190.878 123.173 193.327 120.498C193.377 120.444 193.388 120.383 193.359 120.315L190.185 113.037C190.121 112.887 190.006 112.815 189.841 112.822C182.292 113.099 175.307 111.096 173.634 102.671C173.38 101.387 173.242 99.9766 173.22 98.4387C173.169 94.9072 172.957 91.5341 172.536 87.9086C172.249 85.4344 172.059 82.9663 171.966 80.5046C171.965 80.4737 171.951 80.4446 171.929 80.4235C171.906 80.4025 171.876 80.3911 171.845 80.3918C167.557 80.4858 166.81 75.4182 167.739 72.3325C169.308 67.1333 175.098 68.9648 178.745 66.6821C179.624 66.1324 180.415 65.6437 181.119 65.2158C187.4 61.4077 197.307 61.6306 203.172 66.2524C204.692 67.4502 206.081 69.2656 206.038 71.2287C206.027 71.6799 206.189 71.7542 206.524 71.4516C208.635 69.5368 211.941 67.6569 214.261 70.2619C214.645 70.6916 214.806 71.3388 214.79 71.9028C214.743 73.353 213.891 74.002 212.233 73.8498C212.223 73.849 212.212 73.8511 212.203 73.8559C212.194 73.8607 212.186 73.868 212.181 73.8769C212.176 73.8858 212.173 73.8958 212.174 73.9058C212.175 73.9158 212.179 73.9253 212.185 73.9331C213.101 75.1523 213.74 76.538 214.167 77.9748C215.48 82.3791 216.262 87.2238 216.501 91.8591C216.617 94.106 216.481 96.4863 216.093 99C215.891 100.316 215.545 102.241 214.462 103.058C213.881 103.496 213.096 103.782 212.11 103.915C210.418 104.144 208.803 104.281 207.265 104.325C207.125 104.329 207.061 104.4 207.072 104.538C207.285 107.719 207.591 110.984 207.99 114.332C207.996 114.383 208.02 114.431 208.058 114.466C208.095 114.501 208.143 114.522 208.194 114.525C211.322 114.701 214.371 115.35 217.341 116.472C220.224 117.561 222.64 119.529 224.59 122.378C225.789 124.132 226.828 125.849 227.705 127.529C230.213 132.328 232.57 137.777 234.776 143.875C240.816 160.582 245.118 177.869 248.042 195.317C248.139 195.892 248.212 196.468 248.26 197.047C248.262 197.065 248.26 197.084 248.254 197.102C248.248 197.12 248.239 197.136 248.227 197.15C248.214 197.164 248.199 197.176 248.182 197.184C248.166 197.192 248.147 197.196 248.128 197.197L246.453 197.245C246.408 197.247 246.386 197.27 246.388 197.315C246.825 209.844 247.076 222.95 247.14 236.634C247.14 236.668 247.134 236.702 247.121 236.734C247.108 236.765 247.089 236.794 247.065 236.818C247.041 236.842 247.012 236.862 246.98 236.875C246.948 236.888 246.914 236.895 246.88 236.895L228.755 236.876C228.552 236.876 228.354 236.816 228.186 236.704L186.192 208.707C186.103 208.648 185.997 208.618 185.891 208.621L178.001 208.817C177.911 208.819 177.837 208.854 177.778 208.922C177.74 208.963 177.71 209.01 177.687 209.062C177.644 209.16 177.573 209.244 177.483 209.302C177.393 209.361 177.288 209.391 177.182 209.389C173.522 209.359 169.556 209.363 165.285 209.403C165.07 209.405 164.919 209.325 164.847 209.118C164.797 208.975 164.696 208.902 164.543 208.901L142.224 208.871C142.05 208.871 142.025 208.932 142.149 209.054C142.197 209.1 142.251 209.14 142.31 209.172C142.393 209.215 142.465 209.276 142.521 209.352C142.577 209.427 142.616 209.515 142.635 209.609C142.653 209.703 142.652 209.8 142.629 209.895C142.607 209.99 142.565 210.079 142.506 210.157C142.006 210.823 141.458 211.458 140.862 212.061C140.816 212.108 140.781 212.165 140.762 212.228C140.742 212.29 140.738 212.357 140.749 212.421C140.968 213.644 141.477 214.797 142.278 215.88C142.333 215.956 142.358 216.04 142.353 216.133C142.329 216.514 142.113 216.7 141.703 216.691C141.273 216.681 140.835 216.671 140.39 216.662C140.28 216.66 140.193 216.702 140.126 216.788C139.389 217.739 138.596 218.646 137.747 219.508C137.53 219.729 137.374 220.004 137.277 220.333C137.03 221.168 135.937 221.319 135.223 221.399C135.197 221.402 135.173 221.41 135.151 221.423C135.129 221.435 135.11 221.452 135.095 221.472C135.08 221.492 135.069 221.515 135.063 221.54C135.058 221.564 135.057 221.589 135.062 221.614C135.164 222.196 135.196 222.761 135.158 223.309C135.151 223.41 135.105 223.505 135.029 223.573C134.954 223.641 134.854 223.678 134.753 223.674L91.2065 222.207C91.1234 222.205 91.0446 222.17 90.9865 222.111C90.9285 222.052 90.8957 221.973 90.895 221.891L90.852 218.34C90.8512 218.251 90.8695 218.162 90.9056 218.08C90.9417 217.998 90.9949 217.925 91.0615 217.865L101.173 208.726C101.312 208.599 101.288 208.535 101.1 208.535L93.7175 208.506C93.6293 208.506 93.5427 208.527 93.4651 208.568C92.2727 209.196 90.9872 209.781 89.6086 210.321C86.6295 211.492 83.5053 212.633 80.2361 213.745C68.9371 217.586 56.7071 222.071 43.5461 227.203C36.5852 229.917 29.8149 232.782 23.2353 235.799ZM210.337 72.4748C211.146 72.9099 211.643 73.3127 212.668 73.2859C213.686 73.259 214.28 72.6789 214.14 71.5859C213.987 70.3962 212.934 69.7382 211.839 69.6254C210.311 69.467 208.468 70.6057 207.389 71.5751C207.236 71.7112 207.263 71.781 207.469 71.7846C208.552 71.7989 209.508 72.029 210.337 72.4748ZM77.9292 91.2763C78.1118 91.2799 78.2729 91.3121 78.4126 91.373C78.5486 91.4339 78.6185 91.39 78.6221 91.2414C78.6453 90.3964 78.3401 89.913 77.7063 89.7912C77.1638 89.6865 76.2104 89.6838 75.5337 89.7348C75.0932 89.7671 74.8542 90.0732 74.7038 90.4545C74.2151 91.7096 74.3153 92.9503 75.0046 94.1767C76.0591 96.0566 77.6911 97.0288 79.9004 97.0932C80.1779 97.1022 80.45 97.1102 80.7168 97.1174C80.826 97.1192 80.8949 97.1729 80.9236 97.2785L82.0891 101.605C82.1213 101.728 82.1222 101.851 82.0918 101.973C81.9897 102.389 82.1186 102.878 82.0864 103.316C81.8232 106.784 81.5421 110.079 81.2431 113.201C81.1679 113.985 80.9263 115.105 81.6272 115.688C82.5671 116.469 83.7138 117.009 84.8203 117.546C86.0288 118.134 92.3908 120.68 92.9521 118.86C93.2028 118.049 93.423 117.177 93.6128 116.244C93.6191 116.212 93.6125 116.179 93.5944 116.151C93.5762 116.124 93.5481 116.105 93.5161 116.099C90.5602 115.467 87.9767 113.879 85.7656 111.335C85.5293 111.063 85.3314 110.766 85.1721 110.446C85.1291 110.358 85.1229 110.269 85.1533 110.177C85.2947 109.756 85.5812 109.611 86.0127 109.739C89.5361 110.781 92.9065 111.462 96.1238 111.78C100.353 112.199 104.854 111.719 108.397 109.423C114.23 105.641 114.214 98.8308 113.424 92.6701C112.882 88.427 112.613 84.2733 112.618 80.2092C112.618 80.0928 112.579 80.0776 112.5 80.1635C110.608 82.2332 108.345 82.8151 105.711 81.9091C105.625 81.8787 105.548 81.893 105.48 81.9521C102.072 84.8794 98.487 82.1052 96.2097 79.3525C96.1981 79.338 96.1828 79.3269 96.1655 79.3203C96.1482 79.3137 96.1294 79.3118 96.1111 79.3148C96.0928 79.3178 96.0756 79.3256 96.0613 79.3374C96.0471 79.3492 96.0361 79.3646 96.0298 79.382C95.3127 81.2539 93.9753 83.0505 91.9719 83.5742C90.6345 83.9233 89.4126 83.5903 88.3518 82.7175C88.23 82.6154 88.1038 82.5232 87.9731 82.4409C87.8711 82.3746 87.803 82.3997 87.769 82.5161C86.9097 85.4648 84.4309 89.0124 81.1599 89.4421C81.0543 89.4546 81.0149 89.5119 81.0417 89.614C81.2279 90.3247 81.3112 91.1107 81.2915 91.9719C81.2861 92.21 81.1653 92.3425 80.9289 92.3693L80.7221 92.3935C80.6859 92.3977 80.6492 92.3941 80.6145 92.3829C80.5797 92.3716 80.5477 92.3531 80.5205 92.3285C80.4934 92.3039 80.4717 92.2737 80.4569 92.24C80.4421 92.2063 80.4346 92.1699 80.4348 92.133C80.4402 91.6371 80.4312 91.1367 80.4079 90.6318C80.3462 89.3051 79.3928 88.1101 78.0044 88.1423C77.3222 88.1584 76.7538 88.3392 76.299 88.6848C75.9177 88.9748 75.966 89.1055 76.4441 89.0769C76.812 89.0554 77.2363 88.9748 77.5962 89.0339C78.9927 89.2541 79.6381 90.0902 79.5325 91.5422C79.4304 92.9333 77.905 92.6513 77.768 91.4536C77.7537 91.3336 77.8074 91.2745 77.9292 91.2763ZM207.182 91.3005C206.873 91.3488 206.661 91.1313 206.645 90.8278C206.618 90.3409 206.614 89.8834 206.634 89.4555C206.647 89.1906 206.567 89.1583 206.395 89.3588C204.179 91.9209 202.189 88.7331 201.604 86.8935C200.965 84.882 200.828 82.7229 200.771 80.5583C200.768 80.3721 200.674 80.2799 200.489 80.2817L173.215 80.4831C173.122 80.4831 173.071 80.5297 173.062 80.6228C172.985 81.3926 172.972 82.0461 173.022 82.5832C173.278 85.3225 173.533 88.0617 173.787 90.801C174.05 93.6423 174.139 96.2526 174.193 99.0214C174.467 113.126 187.024 112.884 197.358 110.87C197.683 110.806 197.944 111.018 197.952 111.343C197.955 111.464 197.911 111.567 197.82 111.649C196.212 113.119 194.348 114.143 192.226 114.721C192.092 114.759 192.052 114.84 192.108 114.966L194.162 119.7C194.243 119.885 194.377 119.94 194.565 119.867L206.886 115.049C206.944 115.027 206.992 114.986 207.023 114.934C207.054 114.881 207.067 114.819 207.058 114.759C206.229 108.756 205.884 102.612 206.022 96.3278C206.024 96.2317 206.062 96.1398 206.129 96.0706C206.197 96.0014 206.288 95.9599 206.384 95.9545C207.136 95.9143 207.91 95.9975 208.637 95.8579C211.051 95.3977 212.637 94.0048 213.396 91.6792C213.702 90.7428 213.559 89.7035 212.967 88.5612C212.925 88.4825 212.861 88.4475 212.773 88.4565C212.114 88.5281 211.422 88.5406 210.697 88.4941C209.852 88.4404 209.356 88.7994 209.209 89.571C209.186 89.6838 209.233 89.7429 209.349 89.7482L209.749 89.7671C209.973 89.7778 210.087 89.8951 210.09 90.1189C210.098 90.5781 209.967 91.1958 209.424 91.2978C208.868 91.4025 208.444 91.0239 208.412 90.4841C208.306 88.8155 209.024 87.8979 210.566 87.7314C211.073 87.6777 211.57 87.7663 212.078 87.8066C212.228 87.8173 212.249 87.7699 212.142 87.6643C211.505 87.0287 210.824 86.7073 210.101 86.7002C208.654 86.6867 207.356 87.6669 207.426 89.2514C207.451 89.8637 207.434 90.4787 207.375 91.0964C207.364 91.2146 207.3 91.2826 207.182 91.3005ZM101.425 133.657L101.57 133.622C101.615 133.611 101.662 133.609 101.709 133.616C101.755 133.623 101.799 133.639 101.839 133.663C101.879 133.687 101.914 133.719 101.941 133.757C101.969 133.794 101.989 133.837 102 133.883C103.855 141.512 103.81 149.69 103.128 157.62C103.127 157.629 103.129 157.637 103.133 157.645C103.137 157.653 103.143 157.659 103.151 157.663C103.159 157.668 103.167 157.67 103.176 157.669C103.185 157.669 103.193 157.666 103.2 157.66C108.343 154.048 112.994 149.907 117.635 145.763C117.701 145.704 117.703 145.643 117.64 145.581C116.274 144.188 115.127 142.873 114.197 141.636C111.668 138.266 109.028 134.79 106.278 131.208C102.883 126.785 98.6804 122.598 93.7712 119.891C93.6745 119.839 93.5841 119.848 93.5 119.918C92.9665 120.358 92.2557 120.543 91.3677 120.474C87.9678 120.2 85.2527 119.048 82.3603 117.428C81.2458 116.802 80.185 116.247 80.0615 114.812C80.0568 114.762 80.0332 114.714 79.9955 114.68C79.9577 114.646 79.9084 114.627 79.8574 114.627C76.1281 114.649 72.4757 115.051 68.9004 115.836C65.1531 116.659 61.6879 118.462 58.5046 121.244C53.7243 125.423 50.183 130.492 47.8806 136.45C46.203 140.79 44.7421 145.395 43.4978 150.264C40.2143 163.125 37.5591 177.016 35.5325 191.939C35.4555 192.503 35.4966 193.104 35.656 193.743C36.2576 196.155 38.1455 198.196 40.7156 198.172C44.6714 198.134 48.834 198.263 52.7737 198.26C57.4573 198.255 62.0666 198.299 66.6015 198.392C68.3543 198.43 70.1456 198.439 71.9753 198.422C78.0429 198.364 84.0379 198.418 89.9604 198.583C91.4509 198.623 93.0085 198.626 94.3486 198.209C95.4336 197.875 96.2428 197.178 96.7763 196.12C97.0503 195.579 97.2042 194.707 97.2383 193.504C97.2794 192.12 97.3734 190.785 97.5202 189.498C97.9929 185.405 98.5166 181.301 98.8952 177.192C98.896 177.183 98.8947 177.173 98.8916 177.164C98.8884 177.155 98.8834 177.147 98.8768 177.139C98.8702 177.132 98.8623 177.127 98.8534 177.123C98.8446 177.119 98.8351 177.117 98.8254 177.117C94.6377 177.101 90.3955 176.906 86.0986 176.532C82.833 176.25 79.3498 173.277 77.0564 170.9C73.3074 167.01 69.9997 162.659 67.1333 157.848C67.0617 157.728 66.9614 157.696 66.8325 157.752L60.6504 160.421C60.6158 160.436 60.5786 160.444 60.5409 160.445C60.5031 160.446 60.4656 160.439 60.4304 160.426C60.3953 160.412 60.3632 160.391 60.3359 160.365C60.3087 160.339 60.2869 160.308 60.2717 160.273C58.997 157.411 57.8995 154.406 56.9792 151.261C55.0886 144.789 54.6616 138.032 55.4404 131.243C55.4527 131.131 55.5006 131.026 55.5774 130.942C55.7278 130.783 55.8737 130.723 56.0151 130.765C56.3338 130.858 56.4743 131.07 56.4367 131.401C55.692 137.735 56.0545 143.759 57.5244 149.472C58.3874 152.827 59.4813 155.991 60.8061 158.963C60.832 159.021 60.8798 159.067 60.9392 159.09C60.9985 159.113 61.0646 159.112 61.123 159.086C65.1281 157.35 69.1143 155.627 73.0818 153.919C77.8764 151.857 82.5304 149.441 87.0439 146.671C87.0904 146.642 87.1238 146.597 87.1368 146.544C87.1499 146.492 87.1416 146.437 87.1138 146.392C86.9079 146.052 86.7243 145.7 86.5632 145.336C83.824 139.197 81.5144 133.568 80.4321 127.222C80.4129 127.118 80.426 127.01 80.4697 126.914C80.6094 126.607 80.7884 126.463 81.0068 126.481C81.2736 126.503 81.4276 126.646 81.4687 126.911C81.7677 128.841 82.1661 130.622 82.6638 132.255C83.9564 136.505 85.7155 140.959 87.9409 145.616C88.1038 145.956 88.2515 146.305 88.384 146.663C88.4173 146.754 88.4182 146.853 88.3863 146.944C88.3545 147.035 88.292 147.112 88.2094 147.163L85.1184 149.037C85.0731 149.065 85.0396 149.109 85.0242 149.16C85.0089 149.211 85.0128 149.265 85.0351 149.314C86.4263 152.382 88.0967 155.243 90.0464 157.897C90.4939 158.504 90.9872 159.064 91.5261 159.578C91.596 159.644 91.6859 159.688 91.7839 159.704C94.7291 160.18 97.6724 160.657 100.614 161.135C100.909 161.184 101.225 161.222 101.562 161.251C101.657 161.258 101.71 161.215 101.72 161.122C102.333 155.871 102.591 150.791 102.494 145.882C102.417 141.952 101.934 138.084 101.046 134.277C100.969 133.946 101.096 133.739 101.425 133.657ZM178.259 151.486L178.404 151.653C178.574 151.852 178.745 151.852 178.919 151.655C185.303 144.396 191.163 136.463 196.526 128.463C196.622 128.318 196.61 128.184 196.488 128.06C196.399 127.971 196.296 127.898 196.179 127.843C196.109 127.809 196.029 127.801 195.953 127.821C195.878 127.841 195.812 127.888 195.768 127.953C190.755 135.469 185.429 142.574 179.789 149.268C179.295 149.853 178.753 150.404 178.256 150.989C178.114 151.156 178.115 151.322 178.259 151.486ZM206.196 166.402C215.797 157.3 222.42 144.493 225.333 131.492C225.394 131.22 225.298 131.026 225.043 130.91L224.923 130.856C224.883 130.838 224.84 130.829 224.797 130.83C224.753 130.83 224.711 130.84 224.672 130.859C224.633 130.878 224.599 130.906 224.572 130.94C224.545 130.973 224.527 131.013 224.517 131.055C223.96 133.377 223.311 135.689 222.57 137.991C219.859 146.406 215.713 154.026 210.131 160.851C208.688 162.616 207.159 164.245 205.544 165.738C205.379 165.892 205.363 166.062 205.495 166.246L205.565 166.343C205.753 166.602 205.964 166.622 206.196 166.402ZM126.199 157.083C124.975 156.371 123.782 155.324 122.783 154.387C120.753 152.485 118.802 150.366 116.931 148.027C116.919 148.012 116.903 147.999 116.886 147.989C116.868 147.98 116.849 147.974 116.829 147.973C116.809 147.971 116.789 147.974 116.77 147.981C116.751 147.987 116.734 147.998 116.719 148.011C113.301 151.178 109.7 154.199 105.915 157.072C105.891 157.091 105.87 157.114 105.855 157.141C105.84 157.167 105.831 157.197 105.827 157.228C105.824 157.258 105.827 157.289 105.836 157.319C105.845 157.349 105.86 157.376 105.88 157.4C107.148 158.866 108.52 160.267 109.997 161.603C110.067 161.664 110.148 161.696 110.239 161.699C111.304 161.735 112.557 161.673 113.996 161.511C117.34 161.137 120.231 160.819 122.668 160.555C123.099 160.509 123.453 160.294 123.728 159.911C124.432 158.933 125.261 158.052 126.215 157.266C126.229 157.254 126.24 157.24 126.247 157.224C126.254 157.207 126.257 157.189 126.255 157.171C126.254 157.153 126.248 157.136 126.238 157.12C126.228 157.105 126.215 157.092 126.199 157.083ZM86.5149 172.861C86.5361 172.916 86.5423 172.977 86.5329 173.036C86.5235 173.095 86.4987 173.152 86.4612 173.199C85.9509 173.842 85.5329 174.484 85.207 175.124C85.1193 175.3 85.173 175.393 85.3681 175.404L85.822 175.433C85.9993 175.444 86.1353 175.375 86.2302 175.227C86.7351 174.43 87.3778 173.658 88.1584 172.912C88.3124 172.765 88.4646 172.766 88.615 172.914C88.683 172.979 88.7134 173.057 88.7063 173.151C88.6848 173.433 88.5863 173.658 88.4109 173.825C87.8612 174.344 87.3948 174.859 87.0117 175.372C86.9942 175.395 86.9833 175.422 86.9802 175.451C86.977 175.48 86.9818 175.509 86.9939 175.536C87.006 175.562 87.025 175.585 87.049 175.601C87.0729 175.618 87.1009 175.627 87.1299 175.629C95.1086 176.234 102.728 176.274 110.33 175.538C112.119 175.364 113.948 175.19 115.817 175.014C115.91 175.005 115.957 174.954 115.957 174.861C115.982 170.656 115.528 166.609 114.595 162.723C114.581 162.666 114.547 162.616 114.499 162.581C114.451 162.547 114.393 162.53 114.334 162.535C108.985 162.984 103.897 162.787 99.0698 161.944C96.5884 161.511 94.0362 161.086 91.4133 160.671C91.0839 160.619 90.8171 160.467 90.613 160.214C88.0367 157.04 85.8909 153.599 84.1758 149.891C84.1624 149.863 84.1433 149.837 84.1197 149.816C84.0961 149.795 84.0685 149.779 84.0386 149.77C84.0087 149.76 83.977 149.756 83.9457 149.759C83.9143 149.762 83.8838 149.771 83.8562 149.786C78.7134 152.628 73.4712 154.857 68.1484 157.185C68.1283 157.194 68.1103 157.207 68.0957 157.223C68.081 157.239 68.07 157.258 68.0633 157.279C68.0567 157.3 68.0547 157.322 68.0573 157.344C68.0599 157.366 68.0672 157.387 68.0786 157.405C71.303 162.835 74.9124 167.487 78.9067 171.359C80.3605 172.77 82.107 173.998 84.1462 175.044C84.2465 175.096 84.3235 175.073 84.3772 174.977C84.8337 174.164 85.3484 173.413 85.9214 172.724C86.0252 172.596 86.155 172.559 86.3108 172.611C86.3931 172.638 86.4612 172.721 86.5149 172.861ZM180.869 170.041C180.512 170.591 180.063 171.026 179.736 171.596C179.583 171.859 179.617 171.885 179.835 171.674C181.239 170.32 182.816 169.138 184.298 167.86C185.922 166.46 187.432 165.115 188.829 163.826C188.849 163.808 188.862 163.782 188.863 163.754C188.865 163.727 188.855 163.699 188.837 163.679C185.503 160.06 181.889 156.633 177.993 153.396C177.951 153.362 177.898 153.344 177.845 153.346C177.792 153.348 177.741 153.37 177.703 153.406C175.717 155.36 173.674 157.354 171.574 159.39C171.334 159.621 171.052 159.737 170.728 159.739C165.953 159.778 161.891 159.914 158.541 160.147C154.577 160.425 150.364 160.931 145.9 161.667C145.675 161.702 145.379 161.826 145.232 162C144.465 162.911 143.591 163.603 142.608 164.076C142.587 164.086 142.57 164.101 142.556 164.119C142.543 164.138 142.534 164.159 142.531 164.182C142.528 164.205 142.53 164.228 142.538 164.25C142.546 164.272 142.559 164.291 142.576 164.307C144.533 166.104 147.16 167.237 149.322 168.62C151.365 169.927 152.208 171.714 151.852 173.98C151.849 173.996 151.85 174.012 151.854 174.027C151.859 174.042 151.866 174.056 151.876 174.068C151.886 174.08 151.898 174.09 151.912 174.096C151.926 174.103 151.941 174.106 151.956 174.107C157.456 174.316 163.002 174.15 168.497 173.519C170.983 173.232 173.443 172.945 175.876 172.656C175.999 172.642 176.117 172.601 176.222 172.536C176.327 172.471 176.416 172.384 176.483 172.28L177.901 170.127C177.915 170.104 177.937 170.085 177.963 170.073C178.321 169.889 178.52 169.859 178.559 169.984C178.64 170.231 178.6 170.447 178.438 170.632C178.028 171.108 177.638 171.679 177.268 172.345C177.258 172.362 177.253 172.382 177.253 172.401C177.254 172.421 177.26 172.44 177.271 172.457C177.282 172.474 177.298 172.487 177.316 172.496C177.334 172.504 177.355 172.508 177.375 172.506C179.287 172.313 179.104 170.296 180.557 169.721C180.686 169.671 180.789 169.701 180.866 169.81C180.918 169.887 180.919 169.964 180.869 170.041ZM139.847 174.773L139.89 174.687C140.026 174.406 140.231 174.34 140.505 174.491C142.235 175.449 144.222 176.644 144.45 178.718C144.461 178.814 144.514 178.869 144.609 178.882C148.226 179.373 148.422 175.404 146.322 173.621C145.552 172.969 144.719 172.321 143.822 171.676C143.542 171.476 143.489 171.227 143.661 170.93C143.691 170.878 143.729 170.833 143.773 170.795C143.981 170.618 144.191 170.615 144.405 170.785C145.174 171.402 145.963 172.02 146.77 172.638C147.745 173.382 148.266 174.354 148.747 175.447C148.774 175.507 148.822 175.557 148.881 175.586C148.941 175.615 149.008 175.621 149.072 175.605C149.985 175.36 150.537 174.848 150.729 174.069C151.363 171.483 149.878 170.006 147.783 168.848C146.002 167.862 144.445 166.927 143.113 166.045C142.622 165.719 142.173 165.32 141.765 164.85C141.7 164.776 141.62 164.755 141.526 164.785C141.329 164.848 141.135 164.915 140.946 164.987C138.806 165.79 136.912 165.405 135.263 163.829C134.824 163.41 134.522 163.001 134.355 162.602C134.338 162.56 134.33 162.516 134.332 162.472C134.333 162.427 134.344 162.384 134.363 162.344C134.49 162.081 134.66 161.844 134.874 161.635C136.209 160.312 137.497 159.024 138.738 157.77C138.878 157.629 138.858 157.516 138.679 157.432C135.309 155.834 131.149 155.27 127.942 157.346C126.565 158.24 125.303 159.469 124.155 161.033C124.029 161.205 123.702 161.409 123.489 161.442C122.072 161.658 120.592 161.836 119.05 161.976C119.034 161.977 119.019 161.982 119.005 161.99C118.991 161.998 118.979 162.009 118.97 162.022C118.961 162.035 118.955 162.05 118.952 162.066C118.949 162.081 118.95 162.098 118.954 162.113C119.982 166.214 120.364 170.237 120.304 174.391C120.303 174.542 120.377 174.611 120.527 174.598L122.517 174.426C122.569 174.422 122.617 174.4 122.655 174.364C122.692 174.328 122.715 174.281 122.721 174.23C122.913 172.655 123.817 171.51 125.434 170.795C127.128 170.049 129.065 170.538 129.253 172.619C129.26 172.699 129.304 172.743 129.384 172.75C130.713 172.879 131.545 173.556 131.882 174.781C131.907 174.874 131.966 174.907 132.059 174.88C133.501 174.453 136.329 175.084 136.238 177.09C136.234 177.187 136.281 177.236 136.377 177.238C137.538 177.254 139.262 177.794 139.592 179.08C139.697 179.486 139.517 179.91 139.528 180.332C139.531 180.437 139.586 180.496 139.691 180.509C141.104 180.686 143.427 180.318 143.309 178.468C143.228 177.206 141.045 175.984 140.03 175.385C139.781 175.238 139.72 175.034 139.847 174.773ZM145.226 160.698L147.157 160.483C147.218 160.476 147.273 160.446 147.312 160.4C147.351 160.353 147.37 160.294 147.367 160.233C147.32 159.522 147.146 158.899 146.843 158.364C146.19 157.209 143.897 156.659 142.549 156.479C141.743 156.371 141.168 156.89 140.629 157.416C138.922 159.076 137.245 160.749 135.596 162.435C135.554 162.478 135.53 162.536 135.528 162.596C135.527 162.656 135.548 162.715 135.588 162.76C136.745 164.081 138.547 164.825 140.261 164.143C142.049 163.431 143.582 162.346 144.858 160.888C144.953 160.781 145.084 160.713 145.226 160.698ZM105.118 157.926C105.017 157.788 104.899 157.77 104.763 157.87L103.216 159.006C103.139 159.063 103.087 159.137 103.061 159.229C102.865 159.904 102.753 160.569 102.725 161.224C102.719 161.335 102.772 161.398 102.883 161.412C104.704 161.65 106.512 161.755 108.308 161.726C108.598 161.723 108.633 161.627 108.413 161.439C107.108 160.324 106.009 159.153 105.118 157.926ZM119.152 174.681C119.193 174.676 119.215 174.653 119.217 174.612C119.322 170.673 118.97 166.937 118.159 163.405C118.082 163.074 117.981 162.731 117.858 162.376C117.835 162.311 117.791 162.255 117.732 162.217C117.674 162.18 117.605 162.163 117.536 162.169L115.938 162.309C115.732 162.327 115.651 162.437 115.696 162.639C116.596 166.601 116.934 170.728 117.047 174.805C117.047 174.816 117.05 174.827 117.054 174.837C117.059 174.847 117.066 174.856 117.074 174.863C117.083 174.87 117.092 174.876 117.103 174.879C117.113 174.883 117.124 174.884 117.135 174.883L119.152 174.681ZM194.383 196.74C193.955 186.838 193.81 177.908 193.947 169.952C193.98 168.011 194.056 165.979 194.176 163.856C194.182 163.757 194.154 163.659 194.097 163.578C194.04 163.497 193.957 163.437 193.862 163.41C193.19 163.217 192.624 162.834 192.164 162.261C192.142 162.233 192.114 162.211 192.083 162.195C192.051 162.179 192.017 162.17 191.982 162.168C191.947 162.167 191.912 162.173 191.879 162.186C191.847 162.199 191.818 162.219 191.794 162.245C191.12 162.962 190.499 163.719 189.771 164.393C186.645 167.286 183.609 169.855 180.662 172.101C180.023 172.587 179.274 173.215 178.46 173.314C174.745 173.773 171.281 174.187 168.07 174.558C165.3 174.877 162.898 175.065 160.864 175.124C158.361 175.194 155.292 175.201 151.656 175.146C151.553 175.144 151.466 175.178 151.392 175.248C151.262 175.372 151.14 175.506 151.027 175.651C150.573 176.223 149.582 176.542 148.911 176.618C148.805 176.628 148.743 176.687 148.726 176.792C148.382 178.935 147.08 179.987 144.821 179.948C144.62 179.944 144.424 179.939 144.233 179.932C144.129 179.926 144.051 179.968 143.999 180.058C143.201 181.39 140.997 181.618 139.522 181.487C139.208 181.46 138.99 181.253 138.692 181.5C136.667 183.181 133.595 182.601 131.731 181.07C131.702 181.046 131.667 181.027 131.63 181.016C131.592 181.005 131.553 181.002 131.514 181.006C131.133 181.051 130.789 181.323 130.421 181.401C128.598 181.787 127.466 181.05 127.024 179.188C127.004 179.104 126.95 179.062 126.863 179.064C124.652 179.091 124.045 177.289 123.256 175.619C123.231 175.566 123.192 175.522 123.142 175.492C123.093 175.462 123.036 175.447 122.979 175.449C121.892 175.483 120.85 175.549 119.851 175.645C113.244 176.287 107.038 176.991 100.12 177.157C100.032 177.159 99.9829 177.204 99.9721 177.292C99.4333 181.864 98.9123 186.435 98.4092 191.004C98.2561 192.395 98.3017 193.859 98.103 195.172C97.6438 198.199 95.0979 199.611 92.2351 199.622C90.0705 199.631 87.8388 199.59 85.54 199.498C85.3628 199.491 85.2921 199.575 85.3279 199.751L87.4199 209.859C87.4245 209.88 87.4333 209.899 87.4457 209.915C87.4582 209.932 87.474 209.946 87.4921 209.956C87.5102 209.966 87.5301 209.972 87.5506 209.973C87.571 209.974 87.5915 209.971 87.6106 209.964C89.5675 209.219 91.2951 208.46 92.7937 207.687C93.0461 207.556 93.3335 207.489 93.6557 207.485C99.3204 207.419 104.382 207.432 108.84 207.526C110.886 207.569 112.847 207.576 114.721 207.547C114.758 207.547 114.794 207.535 114.824 207.514C114.855 207.492 114.878 207.461 114.89 207.426C116.077 204.099 121.325 204.093 122.332 207.531C122.348 207.588 122.382 207.638 122.43 207.673C122.478 207.709 122.536 207.728 122.595 207.727C125.965 207.689 129.228 207.702 132.384 207.765C135.064 207.82 137.4 207.819 139.391 207.762C139.491 207.76 139.591 207.733 139.681 207.684L140.092 207.456C140.183 207.406 140.26 207.423 140.322 207.507C140.525 207.77 140.793 207.902 141.128 207.902C148.8 207.9 156.6 207.888 164.527 207.867C164.714 207.867 164.807 207.774 164.807 207.587L164.812 196.665C164.812 196.594 164.84 196.526 164.89 196.475C164.94 196.425 165.007 196.397 165.078 196.397L169.052 196.375C169.171 196.375 169.198 196.325 169.136 196.225L167.342 193.381C167.29 193.298 167.215 193.232 167.125 193.191C167.036 193.151 166.937 193.137 166.84 193.153C166.072 193.276 165.474 192.972 165.046 192.239C163.809 190.121 162.513 187.988 161.16 185.84C161.002 185.591 161.025 185.37 161.229 185.176C161.292 185.118 161.342 185.047 161.377 184.967C161.611 184.446 161.643 183.742 162.365 183.654C162.972 183.58 163.418 183.796 163.703 184.301C165.132 186.827 166.692 189.472 168.384 192.234C168.436 192.318 168.441 192.405 168.4 192.495L168.317 192.677C168.277 192.765 168.282 192.851 168.33 192.935C168.942 194.006 169.567 195.022 170.205 195.983C170.554 196.509 170.738 196.457 170.758 195.825L170.857 192.446C170.858 192.413 170.851 192.38 170.838 192.35C170.825 192.32 170.805 192.293 170.78 192.271C170.755 192.249 170.726 192.233 170.694 192.224C170.663 192.215 170.629 192.213 170.597 192.218C170.496 192.232 170.41 192.205 170.339 192.135C170.28 192.077 170.254 192.009 170.261 191.931C170.578 188.497 170.861 184.724 171.11 180.614C171.147 179.978 171.461 179.588 172.052 179.443C172.689 179.287 173.357 179.821 173.712 180.283C173.767 180.353 173.796 180.433 173.798 180.522C173.803 180.757 173.8 180.984 173.787 181.205C173.628 184.023 173.48 186.67 173.344 189.146C173.322 189.538 173.244 189.869 173.108 190.139C172.841 190.668 172.772 191.302 172.901 192.043C172.912 192.107 172.907 192.172 172.886 192.233C172.865 192.294 172.829 192.348 172.781 192.391C172.733 192.434 172.675 192.465 172.613 192.48C172.55 192.494 172.485 192.493 172.423 192.476C172.337 192.453 172.25 192.448 172.162 192.462C172.059 192.478 172.004 192.539 171.999 192.645L171.862 196.029C171.844 196.473 171.97 196.518 172.24 196.163C173.327 194.74 174.282 193.38 175.106 192.084C175.127 192.05 175.156 192.02 175.19 191.998C175.223 191.976 175.261 191.961 175.301 191.955C175.341 191.949 175.382 191.951 175.421 191.961C175.46 191.972 175.496 191.991 175.527 192.017C175.833 192.267 176.125 192.56 176.403 192.895C176.474 192.981 176.504 193.077 176.491 193.185C176.479 193.31 176.433 193.418 176.354 193.51C176.288 193.585 176.206 193.613 176.107 193.593L175.828 193.537C175.712 193.515 175.618 193.551 175.546 193.644L173.583 196.19C173.488 196.313 173.519 196.375 173.674 196.375L177.319 196.364C177.414 196.364 177.505 196.402 177.572 196.469C177.64 196.536 177.678 196.627 177.678 196.722L177.703 207.593C177.704 207.736 177.776 207.805 177.917 207.8L186.264 207.52C186.28 207.52 186.295 207.524 186.307 207.531L196.84 214.589C196.85 214.596 196.863 214.6 196.876 214.601C196.889 214.602 196.902 214.599 196.913 214.593C196.925 214.587 196.934 214.578 196.941 214.567C196.947 214.555 196.95 214.542 196.95 214.53C196.748 208.65 196.647 202.849 196.649 197.127C196.649 197.03 196.601 196.981 196.504 196.979L194.584 196.936C194.457 196.933 194.39 196.868 194.383 196.74ZM124.757 175.586C125.778 175.229 128.299 174.066 128.326 172.772C128.348 171.8 127.397 171.316 126.521 171.526C125.047 171.878 122.52 173.932 124.467 175.535C124.555 175.607 124.651 175.624 124.757 175.586ZM128.152 174.942C127.405 175.56 126.019 176.489 124.961 176.497C124.94 176.497 124.919 176.503 124.901 176.514C124.882 176.524 124.867 176.54 124.856 176.558C124.845 176.576 124.839 176.597 124.838 176.618C124.837 176.639 124.842 176.66 124.851 176.679C125.193 177.351 125.688 177.8 126.336 178.028C127.123 178.304 129.532 176.62 130.19 176.15C130.547 175.898 130.939 175.525 130.877 175.039C130.804 174.458 130.528 174.082 130.05 173.911C129.261 173.629 128.683 174.504 128.152 174.942ZM128.517 178.468C127.983 178.751 127.901 179.144 128.27 179.647C128.293 179.681 128.371 179.788 128.503 179.969C128.89 180.497 129.39 180.649 130.002 180.423C131.597 179.84 133.515 179.107 134.806 177.963C135.419 177.418 135.357 176.585 134.659 176.169C133.975 175.759 133.267 175.625 132.534 175.766C132.056 175.86 131.758 176.306 131.425 176.628C130.646 177.383 129.486 177.958 128.517 178.468ZM135.792 178.581C135.035 179.343 133.936 179.915 132.926 180.375C132.901 180.386 132.879 180.405 132.863 180.428C132.847 180.451 132.837 180.478 132.835 180.506C132.833 180.534 132.839 180.562 132.852 180.587C132.864 180.612 132.884 180.634 132.908 180.649C134.586 181.709 136.721 181.983 138.193 180.482C139.675 178.97 136.753 177.611 135.792 178.581ZM172.999 180.875C173 180.856 172.994 180.837 172.981 180.823C172.968 180.808 172.951 180.799 172.931 180.798L172.797 180.789C172.788 180.788 172.778 180.789 172.769 180.792C172.76 180.795 172.752 180.8 172.745 180.807C172.738 180.813 172.732 180.82 172.727 180.829C172.723 180.837 172.721 180.847 172.72 180.856L172.116 189.725C172.114 189.744 172.121 189.763 172.133 189.777C172.146 189.792 172.164 189.801 172.183 189.802L172.317 189.811C172.326 189.812 172.336 189.811 172.345 189.808C172.354 189.805 172.362 189.8 172.369 189.794C172.377 189.787 172.383 189.78 172.387 189.771C172.391 189.763 172.393 189.753 172.394 189.744L172.999 180.875ZM163.3 187.086C163.291 187.07 163.278 187.056 163.264 187.046C163.249 187.035 163.232 187.027 163.214 187.022C163.196 187.018 163.178 187.017 163.16 187.02C163.142 187.023 163.124 187.029 163.109 187.038L163.104 187.041C163.072 187.06 163.049 187.091 163.041 187.127C163.032 187.163 163.037 187.201 163.057 187.233L165.958 192.043C165.968 192.059 165.98 192.073 165.995 192.084C166.01 192.095 166.027 192.103 166.045 192.107C166.062 192.111 166.081 192.112 166.099 192.109C166.117 192.107 166.134 192.1 166.15 192.091L166.155 192.088C166.187 192.069 166.209 192.038 166.218 192.002C166.227 191.966 166.221 191.928 166.202 191.896L163.3 187.086ZM176.694 197.609C176.694 197.59 176.69 197.571 176.683 197.554C176.676 197.536 176.665 197.52 176.652 197.507C176.638 197.493 176.622 197.482 176.605 197.475C176.587 197.468 176.568 197.464 176.549 197.464L165.979 197.446C165.96 197.446 165.941 197.449 165.923 197.457C165.906 197.464 165.89 197.474 165.876 197.488C165.863 197.501 165.852 197.517 165.845 197.535C165.838 197.552 165.834 197.571 165.834 197.59L165.815 208.177C165.815 208.196 165.819 208.215 165.826 208.232C165.833 208.25 165.844 208.266 165.858 208.279C165.871 208.293 165.887 208.304 165.905 208.311C165.922 208.318 165.941 208.322 165.96 208.322L176.53 208.34C176.549 208.34 176.568 208.337 176.586 208.33C176.603 208.322 176.619 208.312 176.633 208.298C176.646 208.285 176.657 208.269 176.664 208.251C176.672 208.234 176.676 208.215 176.676 208.196L176.694 197.609ZM241.6 202.377C239.625 201.822 237.761 200.581 236.009 198.653C235.81 198.436 235.643 198.183 235.509 197.895C235.384 197.628 235.189 197.559 234.926 197.686C234.781 197.756 234.723 197.93 234.752 198.209C234.759 198.278 234.784 198.344 234.824 198.4C236.4 200.629 238.484 202.191 241.076 203.086C241.126 203.102 241.179 203.111 241.232 203.111C241.665 203.105 241.859 202.941 241.812 202.619C241.804 202.562 241.78 202.509 241.742 202.467C241.704 202.424 241.655 202.393 241.6 202.377ZM61.0451 203.849C61.0726 203.843 61.1011 203.844 61.1284 203.851C61.1556 203.858 61.1808 203.871 61.202 203.89C61.2231 203.908 61.2396 203.931 61.2502 203.957C61.2607 203.984 61.265 204.012 61.2627 204.04L59.9145 219.745C59.9132 219.758 59.9153 219.771 59.9206 219.783C59.9258 219.796 59.9341 219.806 59.9446 219.814C59.955 219.822 59.9674 219.827 59.9805 219.829C59.9935 219.831 60.0069 219.83 60.0193 219.825L64.7351 218.064C64.8354 218.026 64.8738 217.954 64.8506 217.849C63.8211 213.174 62.8874 208.483 62.0495 203.774C62.0431 203.736 62.0516 203.697 62.0732 203.665C62.0948 203.633 62.1277 203.612 62.165 203.605C64.4048 203.171 66.5639 202.421 68.6426 201.354C68.9057 201.218 68.9568 201.026 68.7956 200.777L68.7312 200.677C68.5128 200.343 68.2218 200.258 67.8584 200.422C65.0887 201.667 62.0666 202.483 58.792 202.872C58.518 202.906 58.4008 203.059 58.4402 203.331L58.5019 203.752C58.5377 203.996 58.6792 204.116 58.9263 204.112C59.6138 204.098 60.32 204.01 61.0451 203.849ZM219.871 209.172L221.195 209.553C221.286 209.579 221.383 209.573 221.47 209.534C221.556 209.495 221.626 209.427 221.668 209.341L221.738 209.196C221.866 208.931 221.787 208.769 221.499 208.71C219.2 208.244 216.839 207.231 214.417 205.67C213.702 205.212 213.072 204.72 212.526 204.196C212.358 204.036 212.174 204.015 211.976 204.131C211.933 204.156 211.897 204.189 211.868 204.23C211.721 204.46 211.751 204.665 211.957 204.845C213.949 206.6 216.244 207.931 218.84 208.839C218.891 208.857 218.934 208.891 218.963 208.936C218.993 208.981 219.006 209.035 219.001 209.089L217.406 228.161C217.401 228.217 217.411 228.272 217.435 228.322C217.459 228.371 217.497 228.413 217.543 228.443L220.862 230.586C220.873 230.593 220.886 230.597 220.899 230.598C220.912 230.598 220.925 230.594 220.936 230.588C220.947 230.581 220.956 230.571 220.962 230.56C220.968 230.548 220.971 230.535 220.969 230.522C220.459 223.504 220.034 216.434 219.694 209.314C219.693 209.292 219.698 209.27 219.707 209.249C219.716 209.229 219.73 209.211 219.747 209.197C219.765 209.184 219.785 209.174 219.806 209.17C219.828 209.165 219.85 209.166 219.871 209.172ZM121.462 208.989L121.457 208.175C121.455 207.737 121.301 207.36 120.995 207.045C119.488 205.498 117.729 205.686 116.252 207.031C115.94 207.314 115.989 207.407 116.397 207.308C118.527 206.794 120.084 207.39 121.067 209.094C121.332 209.552 121.464 209.517 121.462 208.989ZM120.573 210.878C120.604 210.189 120.327 209.513 119.802 209.001C119.277 208.489 118.548 208.181 117.775 208.146C117.001 208.111 116.247 208.351 115.678 208.814C115.109 209.276 114.772 209.924 114.74 210.613C114.709 211.303 114.986 211.978 115.511 212.49C116.036 213.002 116.765 213.31 117.538 213.345C118.312 213.38 119.066 213.14 119.635 212.677C120.204 212.215 120.541 211.567 120.573 210.878ZM103.968 215.698C105.361 213.769 106.127 211.473 106.264 208.809C106.27 208.711 106.223 208.661 106.125 208.659L102.953 208.635C102.844 208.635 102.752 208.675 102.676 208.756C102.528 208.915 102.369 209.072 102.201 209.228C99.3294 211.862 96.3037 214.612 93.124 217.478C92.8626 217.715 92.9083 217.833 93.261 217.833C105.255 217.818 117.155 217.839 128.963 217.894C130.855 217.903 132.739 217.954 134.613 218.048C134.715 218.051 134.812 218.092 134.884 218.163C135.038 218.31 135.128 218.492 135.153 218.711C135.169 218.833 135.223 218.852 135.314 218.77C136.048 218.12 136.676 217.467 137.197 216.81C137.325 216.645 137.286 216.573 137.078 216.595C136.761 216.629 136.432 216.647 136.09 216.648C125.108 216.675 114.523 216.694 104.336 216.705C103.794 216.705 103.686 216.087 103.968 215.698ZM140.937 210.418C141.142 210.257 141.302 210.065 141.418 209.843C141.527 209.634 141.466 209.512 141.233 209.478L141.136 209.462C141.056 209.449 140.974 209.465 140.903 209.505C140.833 209.546 140.777 209.609 140.747 209.685C140.663 209.896 140.658 210.119 140.733 210.353C140.74 210.374 140.751 210.392 140.766 210.407C140.781 210.422 140.8 210.433 140.82 210.439C140.84 210.446 140.861 210.447 140.881 210.443C140.902 210.44 140.921 210.431 140.937 210.418ZM113.615 210.01C113.618 209.947 113.589 209.916 113.526 209.916L107.357 209.875C107.315 209.875 107.275 209.891 107.244 209.919C107.213 209.946 107.194 209.985 107.191 210.026C106.994 211.984 106.403 213.826 105.418 215.55C105.359 215.652 105.389 215.703 105.507 215.703L140.645 215.614C140.792 215.614 140.828 215.551 140.755 215.424C139.835 213.814 139.477 212.013 139.683 210.02C139.686 209.992 139.683 209.964 139.674 209.937C139.665 209.91 139.65 209.885 139.631 209.864C139.612 209.843 139.589 209.826 139.564 209.815C139.538 209.803 139.51 209.797 139.482 209.798H122.568C122.499 209.798 122.432 209.821 122.377 209.863C122.323 209.905 122.284 209.965 122.268 210.031C121.787 211.997 120.715 214.019 118.492 214.331C115.712 214.717 113.502 212.856 113.615 210.01ZM138.922 216.835C138.932 216.824 138.939 216.811 138.944 216.797C138.949 216.783 138.951 216.768 138.95 216.753C138.949 216.738 138.945 216.724 138.938 216.711C138.932 216.697 138.923 216.685 138.911 216.676L138.903 216.669C138.892 216.659 138.879 216.651 138.865 216.647C138.851 216.642 138.836 216.64 138.821 216.641C138.807 216.642 138.792 216.646 138.779 216.653C138.766 216.659 138.754 216.668 138.744 216.679L136.76 218.954C136.75 218.965 136.743 218.978 136.738 218.992C136.733 219.006 136.731 219.021 136.732 219.036C136.733 219.051 136.737 219.065 136.744 219.078C136.75 219.092 136.76 219.104 136.771 219.113L136.779 219.12C136.79 219.13 136.803 219.138 136.817 219.142C136.831 219.147 136.846 219.149 136.861 219.148C136.875 219.147 136.89 219.143 136.903 219.136C136.916 219.13 136.928 219.121 136.938 219.109L138.922 216.835ZM134.081 219.503L134.379 219.312C134.6 219.171 134.579 219.092 134.318 219.076C132.482 218.963 130.468 218.907 128.275 218.907C116.239 218.9 104.178 218.866 92.0928 218.805C91.9101 218.803 91.8188 218.894 91.8188 219.076V220.873C91.8188 221.082 91.9245 221.191 92.1357 221.2L133.888 222.64C133.913 222.641 133.937 222.636 133.96 222.626C133.982 222.616 134.002 222.601 134.018 222.582C134.033 222.562 134.044 222.54 134.05 222.515C134.055 222.491 134.055 222.465 134.049 222.441C133.854 221.632 133.755 220.857 133.751 220.115C133.75 219.994 133.78 219.874 133.838 219.767C133.896 219.66 133.979 219.569 134.081 219.503ZM135.658 220.059C135.738 219.901 135.772 219.746 135.76 219.592C135.755 219.538 135.736 219.487 135.705 219.443C135.673 219.4 135.631 219.366 135.582 219.345L135.182 219.173C135.091 219.133 135.064 219.159 135.102 219.251C135.256 219.618 135.205 220 134.949 220.397C134.891 220.487 134.916 220.531 135.021 220.529C135.168 220.527 135.307 220.492 135.437 220.424C135.509 220.388 135.58 220.39 135.65 220.43C135.925 220.585 136.218 220.615 136.528 220.518C136.546 220.512 136.563 220.502 136.576 220.487C136.589 220.473 136.599 220.456 136.603 220.437C136.608 220.419 136.608 220.399 136.602 220.381C136.597 220.363 136.587 220.346 136.573 220.333C136.33 220.091 136.061 220.038 135.768 220.175C135.619 220.244 135.583 220.206 135.658 220.059ZM134.694 220.424C134.699 220.442 134.711 220.454 134.728 220.459C134.809 220.486 134.831 220.46 134.796 220.381C134.788 220.367 134.777 220.357 134.761 220.352C134.691 220.33 134.669 220.354 134.694 220.424Z" fill="white"/>
<path d="M107.433 87.7435C107.461 88.8051 108.01 89.6519 108.659 89.6349C109.309 89.6179 109.813 88.7436 109.785 87.682C109.757 86.6204 109.208 85.7736 108.559 85.7906C107.909 85.8076 107.405 86.6819 107.433 87.7435Z" fill="white"/>
<path d="M193.526 91.5718C195.1 91.5718 196.375 90.2961 196.375 88.7224C196.375 87.1487 195.1 85.873 193.526 85.873C191.952 85.873 190.677 87.1487 190.677 88.7224C190.677 90.2961 191.952 91.5718 193.526 91.5718Z" fill="white"/>
<path d="M92.6923 88.0289C92.7264 89.0577 93.2528 89.8751 93.868 89.8547C94.4832 89.8343 94.9542 88.9838 94.9201 87.955C94.8859 86.9263 94.3596 86.1088 93.7444 86.1292C93.1292 86.1496 92.6582 87.0002 92.6923 88.0289Z" fill="white"/>
<path d="M178.079 92.1277C179.634 92.1277 180.896 90.8664 180.896 89.3105C180.896 87.7547 179.634 86.4934 178.079 86.4934C176.523 86.4934 175.261 87.7547 175.261 89.3105C175.261 90.8664 176.523 92.1277 178.079 92.1277Z" fill="white"/>
<path d="M184.733 95.3637C184.696 95.4259 184.675 95.4967 184.673 95.5692C184.67 95.6418 184.687 95.7138 184.721 95.7781C184.755 95.8424 184.804 95.8968 184.865 95.9362C184.926 95.9756 184.997 95.9986 185.069 96.0029L186.431 96.0808C186.484 96.0834 186.535 96.106 186.572 96.1438C186.609 96.1817 186.631 96.2321 186.632 96.2849C186.637 96.5078 186.49 96.728 186.264 96.7656C185.252 96.9428 183.946 96.9106 183.839 95.592C183.74 94.3728 185.244 94.354 185.375 93.2368C185.474 92.3971 185.584 91.5896 185.706 90.8144C185.716 90.7492 185.744 90.688 185.785 90.6371C185.827 90.5862 185.881 90.5473 185.942 90.5244C186.074 90.4742 186.192 90.4707 186.294 90.5136C186.534 90.6157 186.633 90.7956 186.592 91.0534C186.454 91.9003 186.319 92.7534 186.186 93.6128C186.103 94.1606 185.748 94.7138 185.225 94.9475C185.006 95.0441 184.843 95.1829 184.733 95.3637Z" fill="white"/>
<path d="M102.878 95.6216C102.882 95.5466 102.87 95.4716 102.843 95.4016C102.816 95.3316 102.773 95.2684 102.719 95.2161C101.72 94.2547 101.122 92.9817 100.923 91.3972C100.896 91.1788 100.992 91.0571 101.21 91.032L101.293 91.024C101.553 90.9935 101.716 91.1045 101.782 91.357C101.942 91.9657 102.118 92.5467 102.311 93.0999C102.569 93.8357 103.297 94.1875 103.63 94.8777C103.861 95.3584 103.842 96.062 103.434 96.4514C102.959 96.9098 102.317 97.0432 101.506 96.8516C101.294 96.8033 101.2 96.6708 101.224 96.4541C101.233 96.3771 101.253 96.3046 101.285 96.2366C101.303 96.198 101.332 96.1651 101.368 96.1419C101.404 96.1186 101.446 96.1058 101.49 96.105C101.821 96.0943 102.164 96.0603 102.521 96.003C102.748 95.9672 102.867 95.84 102.878 95.6216Z" fill="white"/>
<path d="M92.5144 94.5984C92.5184 94.6176 92.5148 94.6376 92.5042 94.6542C92.4937 94.6707 92.4771 94.6825 92.458 94.687L92.4123 94.6977C92.2717 94.7307 92.1189 94.6858 91.9874 94.573C91.856 94.4602 91.7567 94.2887 91.7114 94.0962L91.5073 93.2287C91.4849 93.1331 91.4765 93.0351 91.4827 92.9405C91.4888 92.8459 91.5093 92.7565 91.5429 92.6774C91.5766 92.5983 91.6228 92.5311 91.6789 92.4796C91.735 92.4282 91.7999 92.3934 91.8698 92.3774L91.9128 92.3667C91.9225 92.3643 91.9326 92.3639 91.9425 92.3654C91.9523 92.367 91.9618 92.3705 91.9703 92.3757C91.9788 92.381 91.9862 92.3879 91.992 92.396C91.9978 92.4041 92.0019 92.4133 92.0041 92.4231L92.5144 94.5984Z" fill="white"/>
<path d="M95.0419 92.688L95.0045 92.6926C94.8323 92.7141 94.7101 92.871 94.7316 93.0432L94.8677 94.1359C94.8891 94.3081 95.0461 94.4303 95.2183 94.4088L95.2556 94.4042C95.4278 94.3827 95.55 94.2258 95.5286 94.0536L95.3925 92.9609C95.371 92.7887 95.2141 92.6665 95.0419 92.688Z" fill="white"/>
<path d="M93.2114 93.7506C93.2881 94.2581 93.512 94.6449 93.7114 94.6148C93.9109 94.5846 94.0104 94.1488 93.9336 93.6414C93.8569 93.134 93.633 92.7471 93.4335 92.7773C93.2341 92.8074 93.1346 93.2432 93.2114 93.7506Z" fill="white"/>
<path d="M108.641 94.6172C108.727 94.7944 108.672 94.8947 108.477 94.918L108.399 94.9287C108.192 94.9538 108.047 94.8696 107.964 94.6763C107.698 94.0461 107.593 93.4651 107.65 92.9334C107.652 92.9134 107.658 92.894 107.668 92.8764C107.678 92.8588 107.691 92.8434 107.707 92.8311C107.723 92.8188 107.742 92.8098 107.761 92.8048C107.781 92.7997 107.802 92.7987 107.822 92.8018L107.924 92.8152C108.108 92.8438 108.208 92.9513 108.222 93.1375C108.263 93.6406 108.403 94.1338 108.641 94.6172Z" fill="white"/>
<path d="M110.883 93.1157L110.835 93.1176C110.64 93.1255 110.487 93.2904 110.495 93.486L110.526 94.2535C110.534 94.4491 110.699 94.6013 110.894 94.5935L110.943 94.5915C111.138 94.5837 111.291 94.4187 111.283 94.2231L111.252 93.4556C111.244 93.26 111.079 93.1078 110.883 93.1157Z" fill="white"/>
<path d="M109.3 94.0676C109.338 94.5005 109.539 94.8366 109.749 94.8183C109.959 94.7999 110.098 94.4341 110.06 94.0012C110.022 93.5682 109.822 93.2322 109.612 93.2505C109.402 93.2689 109.263 93.6347 109.3 94.0676Z" fill="white"/>
<path d="M140.521 106.592C140.498 106.592 140.475 106.597 140.454 106.606C140.433 106.615 140.413 106.628 140.398 106.645C140.382 106.661 140.37 106.681 140.362 106.702C140.354 106.724 140.351 106.747 140.352 106.769C141.041 118.487 144.277 129.436 150.06 139.616C150.085 139.659 150.094 139.709 150.086 139.757C150.079 139.805 150.056 139.849 150.02 139.882C149.957 139.943 149.884 139.987 149.8 140.014C149.739 140.033 149.674 140.03 149.616 140.007C149.557 139.984 149.508 139.942 149.478 139.888C143.684 129.65 140.434 118.631 139.729 106.831C139.725 106.765 139.704 106.707 139.665 106.657C139.631 106.612 139.587 106.58 139.533 106.56C139.445 106.529 139.384 106.471 139.35 106.385C139.22 106.054 139.286 105.818 139.549 105.676C139.648 105.624 139.695 105.543 139.691 105.432C139.593 102.401 139.694 99.2946 139.995 96.1131C140.003 96.0303 140.042 95.9536 140.103 95.8984C140.165 95.8431 140.245 95.8133 140.328 95.815L140.438 95.8177C140.588 95.8213 140.656 95.8983 140.639 96.0487C140.305 99.1943 140.191 102.307 140.298 105.386C140.3 105.44 140.322 105.49 140.361 105.527C140.399 105.564 140.451 105.585 140.505 105.585L153.114 105.588C153.173 105.588 153.231 105.6 153.285 105.624C153.339 105.648 153.388 105.683 153.427 105.727C153.467 105.771 153.497 105.822 153.516 105.878C153.534 105.934 153.541 105.994 153.535 106.052L153.522 106.2C153.495 106.467 153.347 106.6 153.079 106.6L140.521 106.592Z" fill="white"/>
<path d="M196.46 96.8625L184.926 100.61C184.798 100.652 184.727 100.79 184.769 100.918L184.816 101.061C184.857 101.19 184.995 101.26 185.124 101.218L196.658 97.4704C196.786 97.4287 196.856 97.2908 196.815 97.1625L196.768 97.0194C196.727 96.8911 196.589 96.8208 196.46 96.8625Z" fill="white"/>
<path d="M95.0442 98.436C96.0835 100.429 98.0279 102.87 100.547 102.126C100.892 102.026 101.114 102.155 101.21 102.515C101.226 102.573 101.222 102.634 101.201 102.69C101.179 102.745 101.14 102.792 101.089 102.824C100.783 103.017 100.439 103.12 100.055 103.133C97.3672 103.219 95.4551 101.108 94.2842 98.8092C94.175 98.598 94.2278 98.4413 94.4427 98.3393L94.5689 98.2775C94.6532 98.237 94.7499 98.2308 94.8387 98.2604C94.9274 98.29 95.0011 98.3529 95.0442 98.436Z" fill="white"/>
<path d="M197.237 98.4118C198.757 102.19 196.171 105.759 192.199 105.985C189.139 106.159 186.873 104.97 185.399 102.419C185.274 102.198 185.331 102.049 185.571 101.97L196.936 98.2695C196.995 98.2503 197.058 98.2544 197.114 98.2808C197.17 98.3073 197.214 98.3541 197.237 98.4118Z" fill="white"/>
<path d="M81.2914 119.719C83.4345 121.69 85.8569 122.935 88.5585 123.452C90.6174 123.848 92.4991 123.858 94.2035 123.484C94.4327 123.434 94.5553 123.525 94.5715 123.758L94.5822 123.879C94.5876 123.968 94.5491 124.028 94.4667 124.059C94.1373 124.182 93.7497 124.264 93.3039 124.303C87.9829 124.767 83.4658 123.072 79.7526 119.219C79.6631 119.126 79.6309 119.017 79.6559 118.892C79.6667 118.842 79.6926 118.795 79.7338 118.752C79.7937 118.688 79.8765 118.649 79.9644 118.645C80.0523 118.641 80.1383 118.672 80.2038 118.731C80.5529 119.044 80.9155 119.373 81.2914 119.719Z" fill="white"/>
<path d="M175.6 191.404C175.468 191.308 175.38 191.163 175.355 191.001C175.329 190.839 175.369 190.674 175.466 190.542L180.184 184.094C180.422 183.768 180.763 183.538 181.131 183.453C181.499 183.368 181.865 183.437 182.147 183.643L182.153 183.648C182.434 183.855 182.61 184.182 182.64 184.559C182.671 184.935 182.555 185.329 182.316 185.654L177.598 192.102C177.501 192.234 177.356 192.323 177.195 192.348C177.033 192.373 176.868 192.333 176.736 192.237L175.6 191.404Z" fill="white"/>
<path d="M148.578 216.861C148.567 216.961 148.612 217.011 148.712 217.011L155.356 217.016C155.424 217.016 155.49 217.043 155.539 217.092C155.587 217.14 155.615 217.205 155.617 217.274L155.627 217.776C155.631 217.948 155.547 218.034 155.375 218.034L148.025 218.045C147.939 218.045 147.855 218.027 147.777 217.991C147.699 217.956 147.63 217.905 147.573 217.841C147.517 217.777 147.474 217.702 147.449 217.62C147.423 217.539 147.416 217.453 147.426 217.368L148.282 210.203C148.313 209.949 148.456 209.823 148.712 209.824L161.879 209.932C161.944 209.933 162.007 209.953 162.059 209.992C162.111 210.03 162.15 210.083 162.169 210.144C162.255 210.416 162.319 210.691 162.36 210.969C162.673 213.094 162.95 215.149 163.19 217.135C163.262 217.733 162.997 218.032 162.395 218.032L157.142 218.034C157.081 218.034 157.02 218.022 156.964 217.998C156.907 217.973 156.856 217.938 156.814 217.893C156.772 217.848 156.739 217.795 156.718 217.737C156.697 217.679 156.688 217.618 156.691 217.556L156.704 217.341C156.717 217.125 156.831 217.015 157.048 217.014L161.928 216.998C161.956 216.997 161.984 216.991 162.01 216.979C162.035 216.967 162.058 216.949 162.076 216.928C162.094 216.907 162.108 216.882 162.116 216.855C162.123 216.828 162.125 216.8 162.121 216.772C161.933 215.485 161.767 214.119 161.622 212.674C161.571 212.166 161.409 211.672 161.348 211.157C161.342 211.113 161.323 211.073 161.293 211.043C161.262 211.012 161.223 210.992 161.181 210.987C160.841 210.943 160.467 210.921 160.059 210.923C156.369 210.937 152.816 210.944 149.4 210.944C149.334 210.944 149.27 210.968 149.222 211.013C149.173 211.057 149.142 211.118 149.136 211.183L148.578 216.861Z" fill="white"/>
<path d="M137.052 213.117C137.022 213.117 136.993 213.105 136.972 213.084C136.951 213.063 136.939 213.034 136.939 213.004L136.941 211.385C136.942 211.207 136.95 211.031 136.967 210.867C136.983 210.703 137.007 210.554 137.037 210.429C137.067 210.303 137.102 210.204 137.141 210.136C137.18 210.068 137.222 210.034 137.264 210.034H137.312C137.397 210.034 137.478 210.177 137.537 210.43C137.596 210.684 137.629 211.027 137.629 211.385L137.626 213.004C137.626 213.034 137.614 213.063 137.593 213.084C137.572 213.105 137.543 213.117 137.513 213.117H137.052Z" fill="white"/>
<path d="M130.908 210.23L130.888 210.236C130.715 210.29 130.618 210.473 130.671 210.646L131.586 213.602C131.64 213.774 131.823 213.871 131.996 213.818L132.017 213.811C132.19 213.758 132.286 213.574 132.233 213.402L131.318 210.446C131.264 210.273 131.081 210.177 130.908 210.23Z" fill="white"/>
<path d="M125.309 210.364L125.289 210.371C125.103 210.44 125.007 210.647 125.076 210.833L126.133 213.707C126.202 213.893 126.408 213.989 126.595 213.92L126.615 213.913C126.802 213.844 126.897 213.637 126.829 213.451L125.771 210.577C125.703 210.391 125.496 210.295 125.309 210.364Z" fill="white"/>
<path d="M160.921 211.404H150.318C150.158 211.404 150.028 211.533 150.028 211.694V212.15C150.028 212.31 150.158 212.44 150.318 212.44H160.921C161.081 212.44 161.211 212.31 161.211 212.15V211.694C161.211 211.533 161.081 211.404 160.921 211.404Z" fill="white"/>
</g>
<defs>
<clipPath id="clip0_459_616">
<rect width="275" height="275" fill="white"/>
</clipPath>
</defs>
</svg>
