<svg width="20" height="20" viewBox="0 0 20 20" fill="none" xmlns="http://www.w3.org/2000/svg">
<g clip-path="url(#clip0_420_35)">
<path d="M19.229 7.12474C18.8918 7.73052 18.4497 8.25479 17.9923 8.7686C17.9149 8.85554 17.8405 8.94512 17.759 9.02841C17.7017 9.0869 17.6925 9.15929 17.676 9.23005C17.3085 10.8102 16.5805 12.2047 15.3417 13.3353C14.2373 14.3432 12.9337 14.9858 11.4323 15.2684C10.7784 15.3914 10.119 15.4487 9.45444 15.4165C8.61751 15.376 7.80619 15.2056 7.02428 14.9183C5.94839 14.5231 5.01097 13.9305 4.22812 13.1203C3.94731 12.8296 3.70172 12.5142 3.48241 12.18C3.42992 12.1 3.36066 12.0548 3.26983 12.0226C2.54911 11.7671 1.86981 11.4392 1.27915 10.9627C0.641406 10.4483 0.200075 9.81768 0.0360433 9.02684C0.00165178 8.86102 -0.00754587 8.69352 0.00590047 8.51676C0.021002 8.52638 0.0340076 8.52996 0.036283 8.53678C0.252846 9.18608 0.70096 9.66326 1.27459 10.0466C2.0749 10.5815 2.96118 10.9309 3.9088 11.1448C4.48605 11.2751 5.07076 11.359 5.66158 11.4169C6.47023 11.4963 7.28007 11.497 8.08939 11.4724C8.63489 11.4557 9.17809 11.3908 9.71927 11.3114C11.0315 11.1189 12.2835 10.7364 13.4983 10.239C15.1295 9.57108 16.6164 8.68529 17.9026 7.51319C18.6129 6.86591 19.1486 6.10335 19.4533 5.20537C19.5408 4.94756 19.6018 4.68308 19.6384 4.39931C19.6977 4.45901 19.7026 4.52452 19.7131 4.5855C19.8366 5.30328 19.7372 5.99639 19.4502 6.66685C19.3847 6.81974 19.3056 6.96732 19.229 7.12474ZM10.4093 14.5939C10.6637 14.5835 10.9149 14.5489 11.1642 14.5016C12.573 14.2341 13.8035 13.6368 14.8447 12.6917C14.9368 12.6081 15.0239 12.5192 15.1087 12.4289C15.1391 12.3965 15.203 12.3642 15.1662 12.3112C15.1334 12.2638 15.0819 12.3115 15.0386 12.3149C15.0312 12.3155 15.0242 12.32 15.0168 12.3221C14.4427 12.4871 13.853 12.5688 13.2575 12.617C12.861 12.6491 12.4631 12.6463 12.066 12.6362C11.9282 12.6327 11.8405 12.675 11.7521 12.7735C11.1175 13.4798 10.395 14.088 9.53546 14.5391C9.51548 14.5496 9.49248 14.558 9.49559 14.6103C9.7921 14.6077 10.0898 14.6252 10.4093 14.5939ZM9.761 12.686C9.63105 12.7002 9.50122 12.7155 9.37112 12.7284C9.00664 12.7644 8.64057 12.7774 8.27464 12.7821C7.99724 12.7856 7.71923 12.7772 7.44212 12.763C7.08488 12.7446 6.72877 12.7116 6.37372 12.6668C6.23272 12.649 6.19172 12.7117 6.24625 12.8369C6.38067 13.1457 6.56885 13.4223 6.80956 13.6649C7.03483 13.8919 7.28969 14.0828 7.61098 14.1693C8.02986 14.282 8.43632 14.2236 8.82635 14.0542C9.54615 13.7415 10.1463 13.2722 10.6996 12.743C10.718 12.7255 10.7411 12.7083 10.7349 12.6758C10.7061 12.629 10.6559 12.6422 10.6115 12.6404C10.3335 12.6293 10.0575 12.6522 9.761 12.686ZM13.8354 11.7911C13.8962 11.7823 13.9571 11.7745 14.0177 11.7644C14.5397 11.6774 15.0453 11.5435 15.5173 11.3055C15.9598 11.0823 16.3025 10.7784 16.453 10.3088C16.4616 10.282 16.4866 10.2574 16.4634 10.2237C16.4072 10.1957 16.3717 10.2398 16.3336 10.2654C15.8034 10.6211 15.2514 10.9426 14.673 11.2223C14.3157 11.3951 13.9556 11.5627 13.5977 11.7346C13.5648 11.7504 13.5107 11.7562 13.5242 11.83C13.6215 11.8185 13.7186 11.8071 13.8354 11.7911ZM5.50966 13.0478C5.44457 12.8988 5.3792 12.7499 5.31461 12.6007C5.30134 12.57 5.29341 12.5284 5.25856 12.5213C5.1392 12.4968 5.0202 12.4613 4.89614 12.4729C4.83389 12.4787 4.82918 12.5175 4.86434 12.5585C5.0335 12.7556 5.22899 12.9272 5.4378 13.0851C5.46696 13.1072 5.51033 13.1345 5.50966 13.0478Z" fill="black"/>
<path d="M17.9196 3.16608C18.1652 2.74461 18.2903 2.29877 18.3284 1.82407C18.3937 1.90502 18.4008 2.00484 18.4145 2.09919C18.5027 2.70387 18.3654 3.27375 18.1075 3.82252C17.8689 4.33023 17.526 4.77433 17.1609 5.20369C17.1166 5.2558 17.1069 5.2985 17.1285 5.36221C17.3164 5.91518 17.4228 6.48505 17.5086 7.05893C17.5158 7.1071 17.5157 7.15427 17.4706 7.19021C17.2396 7.37403 17.0092 7.55841 16.7782 7.74212C16.7734 7.74593 16.7637 7.74414 16.7389 7.7469C16.7012 7.15645 16.6284 6.57084 16.4604 5.954C16.4071 6.01748 16.3752 6.06268 16.336 6.10103C16.1094 6.32238 15.8673 6.52814 15.6182 6.72569C15.5441 6.78442 15.5398 6.82702 15.5912 6.89861C15.8313 7.23282 16.0431 7.58271 16.2268 7.94828C16.2652 8.02462 16.2622 8.07191 16.1856 8.12384C16.0133 8.24064 15.8471 8.36565 15.6818 8.48486C15.6226 8.45936 15.6153 8.41285 15.5957 8.37456C15.4162 8.02314 15.1762 7.71483 14.8675 7.45684C14.7186 7.33248 14.5941 7.37508 14.5494 7.56837C14.4197 8.12923 14.2265 8.67081 14.0196 9.20916C13.9652 9.35053 13.8863 9.44383 13.7405 9.50565C13.477 9.61736 13.2212 9.74534 12.9668 9.86437C12.926 9.83013 12.9513 9.80762 12.9615 9.78692C13.2409 9.21963 13.4327 8.62251 13.6237 8.02512C13.6357 7.98735 13.6566 7.94405 13.617 7.91163C13.5762 7.87818 13.5357 7.91186 13.4985 7.92577C12.7137 8.2192 11.9053 8.43482 11.0787 8.58843C10.5759 8.68187 10.0682 8.74229 9.55715 8.78233C9.09168 8.8188 8.62633 8.85286 8.15945 8.84202C7.51997 8.82718 6.88134 8.79577 6.24881 8.69513C5.94677 8.64707 5.93814 8.64684 5.8933 8.93511C5.84985 9.21446 5.83044 9.49667 5.83282 9.77999C5.83352 9.86322 5.89141 9.89373 5.94826 9.93044C6.46651 10.2651 7.0065 10.5646 7.56323 10.8372C7.60011 10.8552 7.63563 10.8758 7.68075 10.9C7.63069 10.949 7.5746 10.9399 7.52572 10.9402C7.12811 10.9422 6.73049 10.9427 6.33288 10.941C6.20468 10.9404 6.12002 10.846 6.01542 10.7948C5.96839 10.7717 5.92887 10.7323 5.87115 10.7411C5.86439 10.75 5.85669 10.7555 5.8561 10.7616C5.83839 10.9453 5.83849 10.9454 5.64407 10.937C5.50923 10.9311 5.37447 10.9226 5.23957 10.9196C5.17967 10.9183 5.14816 10.9015 5.14176 10.8397C5.12328 10.6611 5.09557 10.4833 5.08069 10.3044C5.07523 10.2388 5.0511 10.1988 4.99674 10.1599C4.23086 9.61075 3.55017 8.97815 2.95512 8.26218C2.93204 8.23441 2.91542 8.19761 2.83972 8.19444C2.8832 8.96901 3.14958 9.68235 3.44248 10.3846C3.41079 10.4195 3.3814 10.4057 3.35168 10.3991C3.06101 10.335 2.78697 10.2262 2.51228 10.1186C2.45864 10.0976 2.44138 10.0589 2.4258 10.0111C2.24421 9.45388 2.07623 8.89344 2.0005 8.3126C1.97008 8.07927 1.96229 7.84385 1.97306 7.60877C1.97669 7.5297 1.94615 7.48001 1.88019 7.4343C1.53942 7.19814 1.20817 6.95128 0.941281 6.63595C0.628257 6.26611 0.418811 5.84895 0.309235 5.38603C0.305261 5.36925 0.308729 5.35086 0.308729 5.31844C0.397846 5.38203 0.438051 5.46568 0.487877 5.53853C0.890662 6.12743 1.46033 6.51411 2.13054 6.78204C2.8695 7.07747 3.63699 7.28108 4.42457 7.41333C5.0013 7.51017 5.58485 7.54993 6.17007 7.57845C6.58717 7.59878 7.00388 7.60082 7.42007 7.59156C7.95134 7.57973 8.48153 7.54157 9.011 7.49033C10.1536 7.37977 11.2691 7.15019 12.3631 6.82285C13.5261 6.47489 14.6248 5.99971 15.625 5.32735C16.2518 4.90601 16.8397 4.44424 17.3525 3.89894C17.5642 3.67386 17.7593 3.43723 17.9196 3.16608ZM5.14268 8.79573C5.14422 8.73333 5.14431 8.67086 5.14773 8.60856C5.15065 8.55546 5.12726 8.52538 5.07207 8.51655C4.79124 8.4716 4.51569 8.40371 4.2383 8.34371C4.19676 8.33472 4.13987 8.31145 4.11243 8.36214C4.08922 8.40502 4.13566 8.43599 4.16093 8.46566C4.40696 8.75456 4.67915 9.01922 4.97943 9.25731C5.00488 9.27749 5.02732 9.30683 5.07702 9.30011C5.12616 9.14352 5.11197 8.97696 5.14268 8.79573Z" fill="black"/>
<path d="M2.8194 6.45399C2.66357 6.40705 2.51703 6.36149 2.3692 6.3201C2.29273 6.29869 2.26353 6.25807 2.27757 6.18183C2.59098 4.48103 3.41378 3.04906 4.77891 1.90823C5.91031 0.962738 7.2286 0.37585 8.70147 0.102025C9.07161 0.0332124 9.44821 0.0067914 9.82744 0.00114316C10.5958 -0.0103005 11.3503 0.0637103 12.0829 0.290869C13.8495 0.838634 15.2173 1.87359 16.2051 3.36751C16.3077 3.5227 16.3917 3.68905 16.484 3.85042C16.511 3.8976 16.5299 3.9426 16.4756 3.98834C16.2823 4.15126 16.0909 4.31612 15.8832 4.49353C15.8204 4.38187 15.7614 4.27739 15.7029 4.17261C15.1092 3.10918 14.3028 2.23186 13.2187 1.59738C13.1891 1.58007 13.1596 1.56225 13.1283 1.54823C13.0989 1.53507 13.0668 1.50369 13.0347 1.53807C13.004 1.57091 13.0356 1.60141 13.0522 1.6276C13.2184 1.88894 13.3659 2.15927 13.4933 2.43972C13.7778 3.06643 13.9673 3.71775 14.0629 4.39473C14.1106 4.73299 14.1445 5.07173 14.1541 5.41296C14.1561 5.48579 14.1302 5.52741 14.0625 5.55998C13.9455 5.61627 13.8321 5.6796 13.7188 5.74267C13.6695 5.77012 13.6311 5.77258 13.5841 5.73395C12.7913 5.08279 11.8846 4.61773 10.9157 4.25394C10.196 3.98373 9.45283 3.79302 8.69215 3.66609C8.32073 3.60412 7.94539 3.56403 7.56759 3.54862C7.46792 3.54456 7.41515 3.57763 7.37276 3.66301C7.05215 4.30873 6.78961 4.97538 6.57577 5.65932C6.45044 6.06014 6.33367 6.46342 6.2177 6.86681C6.19157 6.95771 6.15143 6.99843 6.0439 6.99616C5.8513 6.99209 5.65828 7.00663 5.46541 7.01254C5.44707 7.0131 5.42853 7.00762 5.39122 7.00221C5.70154 5.83699 6.05199 4.69289 6.567 3.59556C6.43903 3.54198 6.3283 3.58643 6.22201 3.59874C5.6761 3.66197 5.14481 3.77805 4.65256 4.02468C4.20315 4.24984 3.82732 4.55366 3.54589 4.95746C3.33538 5.2595 3.24746 5.60838 3.14816 5.95144C3.09631 6.13055 3.05856 6.31336 3.01462 6.49375C2.94252 6.5015 2.88822 6.46618 2.8194 6.45399ZM8.26826 2.83061C10.0433 3.076 11.6903 3.65075 13.2047 4.59504C13.2308 4.41295 13.2058 4.25566 13.1813 4.10191C13.0835 3.48826 12.896 2.899 12.5999 2.34519C12.3465 1.87112 12.0516 1.4232 11.608 1.08353C11.4806 0.986028 11.3423 0.904329 11.1772 0.880412C10.5961 0.796246 10.0559 0.901458 9.56554 1.21261C8.93375 1.6135 8.42708 2.13495 7.98598 2.71792C7.96922 2.74007 7.94122 2.76173 7.96506 2.80198C8.05653 2.81102 8.15187 2.82045 8.26826 2.83061ZM5.34108 2.49644C5.0797 2.71849 4.81018 2.93299 4.59482 3.22245C4.78686 3.15469 4.96042 3.08583 5.13895 3.03187C5.69259 2.86453 6.26233 2.7837 6.84177 2.76423C6.97669 2.7597 7.07002 2.72651 7.14985 2.60286C7.54851 1.98536 8.02808 1.43156 8.63028 0.980867C8.64679 0.968508 8.67292 0.959265 8.65904 0.916584C7.41946 1.17821 6.31787 1.69983 5.34108 2.49644Z" fill="black"/>
<path d="M15.5267 15.6681C16.1093 15.3927 16.5818 15.0049 16.9593 14.5129C17.3007 14.0678 17.5015 13.5589 17.6792 13.0404C17.7354 12.8764 17.7858 12.7103 17.8508 12.5495C17.9416 12.3247 18.0924 12.1484 18.3403 12.0654C18.3835 12.051 18.4297 12.0366 18.4747 12.0363C18.6532 12.0353 18.7275 12.1307 18.6852 12.3063C18.644 12.4778 18.5973 12.648 18.5543 12.8191C18.3721 13.5455 18.1515 14.2596 17.7889 14.926C17.0921 16.2068 16.0438 17.1154 14.6213 17.6257C14.4227 17.6969 14.2216 17.7585 14.0167 17.8115C13.0618 18.0581 12.4926 18.659 12.2562 19.562C12.2385 19.6295 12.2235 19.6976 12.2077 19.7656C12.1712 19.9226 12.1373 19.9613 11.9711 19.9633C11.4963 19.9689 11.0214 19.9668 10.5465 19.9652C10.435 19.9648 10.3833 19.8941 10.3632 19.7986C10.3534 19.7519 10.3436 19.7045 10.3416 19.6571C10.3115 18.9488 10.3519 18.2496 10.6084 17.5734C10.9168 16.7606 11.4775 16.1572 12.2518 15.7166C12.6774 15.4744 13.135 15.3192 13.6071 15.1894C14.145 15.0416 14.6752 14.8731 15.1583 14.594C15.2509 14.5405 15.3521 14.5031 15.4606 14.4883C15.5778 14.4724 15.6342 14.5214 15.6362 14.6345C15.6374 14.6996 15.6105 14.756 15.5858 14.8138C15.4281 15.1819 15.1128 15.4027 14.7757 15.6048C14.5603 15.7338 14.3342 15.8471 14.1336 15.9981C14.1185 16.0095 14.1012 16.0187 14.0878 16.0317C14.0638 16.0548 14.0318 16.0787 14.0503 16.1161C14.0699 16.1559 14.108 16.1432 14.1419 16.1354C14.5987 16.0302 15.0624 15.9438 15.4681 15.698C15.4844 15.6881 15.502 15.6804 15.5267 15.6681Z" fill="black"/>
<path d="M7.62466 15.7503C8.60814 16.3365 9.14916 17.1904 9.3589 18.2534C9.44917 18.711 9.4574 19.1725 9.4467 19.6353C9.44509 19.7047 9.43381 19.7742 9.42274 19.8429C9.41103 19.9158 9.36866 19.9589 9.28718 19.9716C9.17066 19.9897 9.05616 19.9661 8.94069 19.9664C8.60089 19.9671 8.26108 19.9671 7.92128 19.9662C7.86749 19.9661 7.81283 19.9647 7.76016 19.9556C7.67663 19.9411 7.63384 19.8999 7.62203 19.8082C7.53005 19.0941 7.20945 18.5057 6.55787 18.109C6.25851 17.9268 5.91619 17.8427 5.58384 17.7359C4.47678 17.3802 3.51743 16.81 2.78458 15.9329C2.18637 15.2169 1.76706 14.4107 1.53276 13.5205C1.43169 13.1364 1.32832 12.7529 1.2279 12.3687C1.16068 12.1114 1.29151 11.9934 1.56084 12.0644C1.74641 12.1133 1.8589 12.2395 1.94726 12.3917C2.0339 12.541 2.07099 12.7071 2.12768 12.8668C2.33631 13.4547 2.53954 14.0459 2.92231 14.5597C3.18747 14.9157 3.53101 15.1906 3.90869 15.4333C4.49534 15.8103 5.15111 16.0128 5.83559 16.1476C5.85778 16.152 5.88116 16.1509 5.91447 16.153C5.89757 16.0798 5.85566 16.0335 5.79854 15.9943C5.66633 15.9037 5.52215 15.8335 5.37711 15.7643C5.12853 15.6457 4.88311 15.5226 4.66447 15.3557C4.42206 15.1706 4.3012 14.9223 4.24633 14.6403C4.22307 14.5208 4.30742 14.4558 4.43018 14.5036C4.6193 14.5771 4.80287 14.6635 4.98874 14.7447C5.60708 15.0145 6.2525 15.2158 6.89384 15.4274C7.14616 15.5107 7.38899 15.6137 7.62466 15.7503Z" fill="black"/>
<path d="M17.6673 12.5372C17.5295 12.9247 17.3754 13.2974 17.2702 13.6858C17.2144 13.8916 17.1056 14.0731 16.9649 14.2375C16.6991 14.5478 16.4642 14.8821 16.1668 15.1677C16.0399 15.2895 15.909 15.4069 15.7506 15.4913C15.7208 15.4591 15.7477 15.4445 15.7602 15.4293C15.8893 15.2721 15.9962 15.1024 16.0773 14.9182C16.2759 14.4676 16.5363 14.0441 16.7173 13.5852C16.8261 13.3095 16.8876 13.021 16.9913 12.7446C17.0406 12.6132 17.0884 12.4789 17.2033 12.3827C17.2463 12.3467 17.2947 12.314 17.3458 12.2898C17.4423 12.2441 17.5472 12.2197 17.6424 12.2847C17.7399 12.3512 17.686 12.4443 17.6673 12.5372Z" fill="black"/>
<path d="M2.64388 13.696C2.5082 13.297 2.37445 12.9066 2.24176 12.5159C2.22643 12.4708 2.21155 12.4244 2.20591 12.3776C2.19118 12.2551 2.25293 12.2032 2.37789 12.2367C2.55297 12.2836 2.68735 12.3826 2.76973 12.5398C2.83874 12.6716 2.89494 12.8086 2.92929 12.9518C3.07388 13.5548 3.33264 14.113 3.65087 14.6489C3.75846 14.8301 3.84841 15.0207 3.96855 15.2009C3.85083 15.1769 3.74162 15.1374 3.65359 15.0628C3.48373 14.9188 3.3163 14.7719 3.15343 14.6208C2.8811 14.3682 2.77066 14.0323 2.64388 13.696Z" fill="black"/>
</g>
<defs>
<clipPath id="clip0_420_35">
<rect width="19.7652" height="19.9784" fill="white"/>
</clipPath>
</defs>
</svg>
