<svg width="30" height="30" viewBox="0 0 30 30" fill="none" xmlns="http://www.w3.org/2000/svg">
<path d="M22.4761 20.3258C22.9183 17.049 22.9222 16.841 22.8755 16.6305C22.7731 16.4253 22.5324 16.1198 20.0951 13.401L19.4522 12.7791" stroke="black" stroke-width="1.19787" stroke-linecap="round" stroke-linejoin="round"/>
<path d="M10.591 13.2232C10.5387 12.0176 10.5041 10.0586 10.5404 9.23577C10.6468 8.41167 10.8726 7.37378 11.1658 6.45884C11.4382 5.84289 11.737 5.22469 12.0624 4.60425" stroke="black" stroke-width="1.19787" stroke-linecap="round" stroke-linejoin="round"/>
<path d="M7.36411 16.2366C7.20373 16.4552 7.13391 16.5868 7.09265 16.7496C7.08179 16.9082 7.23239 18.1027 7.54446 20.3333" stroke="black" stroke-width="1.19787" stroke-linecap="round" stroke-linejoin="round"/>
<path d="M12.0624 4.60409C12.3814 4.08946 12.8205 3.4728 13.2359 2.95918C13.7183 2.44185 14.238 1.93582 14.6293 1.6124C14.9034 1.49043 15.0408 1.4772 15.1584 1.49926C15.2932 1.55373 15.4528 1.663 16.1772 2.32201C16.7273 2.89098 17.2746 3.5584 17.6772 4.13719C18.0688 4.79461 18.489 5.62976 18.8343 6.42291" stroke="black" stroke-width="1.19787" stroke-linecap="round" stroke-linejoin="round"/>
<path d="M18.8343 6.4231C19.1071 7.25255 19.3422 8.25238 19.4765 9.19071L19.5154 9.96248" stroke="black" stroke-width="1.19787" stroke-linecap="round" stroke-linejoin="round"/>
<path d="M19.4809 11.5662C19.4425 12.5483 19.4521 12.779 19.1989 15.0214C19.0478 15.9161 18.8158 17.0875 18.5031 18.5355" stroke="black" stroke-width="1.19787" stroke-linecap="round" stroke-linejoin="round"/>
<path d="M22.476 20.326L18.5031 18.5356" stroke="black" stroke-width="1.19787" stroke-linecap="round" stroke-linejoin="round"/>
<path d="M11.4858 18.5324L10.5664 12.6526" stroke="black" stroke-width="1.19787" stroke-linecap="round" stroke-linejoin="round"/>
<path d="M11.4858 18.5322L7.54443 20.3332" stroke="black" stroke-width="1.19787" stroke-linecap="round" stroke-linejoin="round"/>
<path d="M18.4175 18.9092L11.5771 18.943" stroke="black" stroke-width="1.19787" stroke-linecap="round" stroke-linejoin="round"/>
<path d="M10.5009 12.7468L7.36407 16.2365" stroke="black" stroke-width="1.19787" stroke-linecap="round" stroke-linejoin="round"/>
<path d="M19.5153 9.96265L19.4809 11.5663" stroke="black" stroke-width="1.19787" stroke-linecap="round" stroke-linejoin="round"/>
<path d="M15.0018 11.7649C16.2604 11.7649 17.2807 10.7446 17.2807 9.48594C17.2807 8.22733 16.2604 7.20703 15.0018 7.20703C13.7431 7.20703 12.7228 8.22733 12.7228 9.48594C12.7228 10.7446 13.7431 11.7649 15.0018 11.7649Z" stroke="black" stroke-width="1.19787" stroke-linecap="round" stroke-linejoin="round"/>
<path d="M16.8906 20.6863C18.0633 21.8652 17.7907 23.3694 17.0598 24.6716" stroke="black" stroke-width="1.19787" stroke-linecap="round" stroke-linejoin="round"/>
<path d="M13.0591 20.7402C11.6699 22.4591 12.3711 23.6877 13.3856 25.4854" stroke="black" stroke-width="1.19787" stroke-linecap="round" stroke-linejoin="round"/>
<path d="M17.0599 24.6716L14.9944 28.422" stroke="black" stroke-width="1.19787" stroke-linecap="round" stroke-linejoin="round"/>
<path d="M13.3856 25.4854L14.9962 28.5226" stroke="black" stroke-width="1.19787" stroke-linecap="round" stroke-linejoin="round"/>
</svg>
