<svg width="28" height="28" viewBox="0 0 28 28" fill="none" xmlns="http://www.w3.org/2000/svg">
<path d="M16.048 11.34C15.9759 10.9325 15.6374 9.79048 15.0326 7.91406" stroke="black" stroke-width="1.11801" stroke-linecap="round" stroke-linejoin="round"/>
<path d="M14.0461 4.86079C13.9112 4.5583 13.7748 4.36578 13.6004 4.20151C13.5038 4.13781 13.3019 4.05107 13.0056 4.00953L11.33 4.00879" stroke="black" stroke-width="1.11801" stroke-linecap="round" stroke-linejoin="round"/>
<path d="M4.94081 4.0166C4.71631 4.0575 4.5294 4.13255 4.38028 4.22642C4.21154 4.38331 4.05025 4.61571 3.97616 4.79225C3.94658 4.91822 3.92639 5.07055 3.91559 5.24925" stroke="black" stroke-width="1.11801" stroke-linecap="round" stroke-linejoin="round"/>
<path d="M19.8725 6.59785C19.9192 6.34679 20.0155 6.11497 20.1294 5.9424C20.3258 5.73218 20.5622 5.56709 20.792 5.46453C20.964 5.41971 21.1217 5.3919 21.265 5.3811" stroke="black" stroke-width="1.11801" stroke-linecap="round" stroke-linejoin="round"/>
<path d="M22.7974 23.9541C24.9118 23.9541 26.6259 22.2401 26.6259 20.1256C26.6259 18.0112 24.9118 16.2971 22.7974 16.2971C20.683 16.2971 18.9689 18.0112 18.9689 20.1256C18.9689 22.2401 20.683 23.9541 22.7974 23.9541Z" stroke="black" stroke-width="1.11801" stroke-linecap="round" stroke-linejoin="round"/>
<path d="M7.04563 23.987C10.1873 23.987 12.7342 21.4401 12.7342 18.2984C12.7342 15.1567 10.1873 12.6099 7.04563 12.6099C3.90392 12.6099 1.35706 15.1567 1.35706 18.2984C1.35706 21.4401 3.90392 23.987 7.04563 23.987Z" stroke="black" stroke-width="1.11801" stroke-linecap="round" stroke-linejoin="round"/>
<path d="M16.0465 15.4071L13.8373 15.4053" stroke="black" stroke-width="1.11801" stroke-linecap="round" stroke-linejoin="round"/>
<path d="M13.8172 15.4122C13.3879 14.1336 12.5674 13.0223 11.4717 12.2358C10.3761 11.4492 9.06084 11.0272 7.7121 11.0293" stroke="black" stroke-width="1.11801" stroke-linecap="round" stroke-linejoin="round"/>
<path d="M7.18461 11.0294L7.18427 4.01172" stroke="black" stroke-width="1.11801" stroke-linecap="round" stroke-linejoin="round"/>
<path d="M24.8738 16.8787L24.8753 12.7952" stroke="black" stroke-width="1.11801" stroke-linecap="round" stroke-linejoin="round"/>
<path d="M19.1059 19.0786L12.6961 19.0911" stroke="black" stroke-width="1.11801" stroke-linecap="round" stroke-linejoin="round"/>
<path d="M16.0466 15.407L16.0481 11.3398" stroke="black" stroke-width="1.11801" stroke-linecap="round" stroke-linejoin="round"/>
<path d="M15.0326 7.91416L14.046 4.86084" stroke="black" stroke-width="1.11801" stroke-linecap="round" stroke-linejoin="round"/>
<path d="M11.33 4.00879L4.9408 4.01669" stroke="black" stroke-width="1.11801" stroke-linecap="round" stroke-linejoin="round"/>
<path d="M3.91554 5.24951L3.91064 11.023" stroke="black" stroke-width="1.11801" stroke-linecap="round" stroke-linejoin="round"/>
<path d="M19.8662 11.033L19.8725 6.5979" stroke="black" stroke-width="1.11801" stroke-linecap="round" stroke-linejoin="round"/>
<path d="M7.03515 21.2353C8.64318 21.2353 9.94675 19.9318 9.94675 18.3237C9.94675 16.7157 8.64318 15.4121 7.03515 15.4121C5.42711 15.4121 4.12354 16.7157 4.12354 18.3237C4.12354 19.9318 5.42711 21.2353 7.03515 21.2353Z" stroke="black" stroke-width="1.11801" stroke-linecap="round" stroke-linejoin="round"/>
<path d="M22.796 21.6921C23.6599 21.6921 24.3601 20.9918 24.3601 20.128C24.3601 19.2642 23.6599 18.564 22.796 18.564C21.9322 18.564 21.232 19.2642 21.232 20.128C21.232 20.9918 21.9322 21.6921 22.796 21.6921Z" stroke="black" stroke-width="1.11801" stroke-linecap="round" stroke-linejoin="round"/>
<path d="M7.71214 11.0347L3.91064 11.0227" stroke="black" stroke-width="1.11801" stroke-linecap="round" stroke-linejoin="round"/>
<path d="M24.8624 12.7931C24.9046 12.548 24.8856 12.2964 24.8072 12.0604C24.7289 11.8244 24.5934 11.6115 24.413 11.4404C24.2326 11.2693 24.0127 11.1454 23.7729 11.0796C23.5332 11.0139 23.2808 11.0084 23.0384 11.0635" stroke="black" stroke-width="1.11801" stroke-linecap="round" stroke-linejoin="round"/>
<path d="M23.0328 11.0384L15.9935 11.0317" stroke="black" stroke-width="1.11801" stroke-linecap="round" stroke-linejoin="round"/>
</svg>
